<svg width="94" height="125" viewBox="0 0 94 125" fill="none" xmlns="http://www.w3.org/2000/svg">
<path d="M19.0187 15.6956C18.3676 19.0744 17.1422 20.3084 13.7871 20.9642C17.1422 21.6215 18.3676 22.8571 19.0187 26.2329C19.6714 22.8556 20.8983 21.6215 24.2519 20.9642C20.8983 20.3084 19.6729 19.0744 19.0187 15.6956Z" fill="#F4B430"/>
<path d="M10.1346 32.67C12.2941 32.67 14.0447 30.907 14.0447 28.7323C14.0447 26.5576 12.2941 24.7946 10.1346 24.7946C7.97519 24.7946 6.22461 26.5576 6.22461 28.7323C6.22461 30.907 7.97519 32.67 10.1346 32.67Z" fill="#F4B430"/>
<path d="M15.2806 46.671C17.4401 46.671 19.1907 44.9081 19.1907 42.7333C19.1907 40.5586 17.4401 38.7957 15.2806 38.7957C13.1212 38.7957 11.3706 40.5586 11.3706 42.7333C11.3706 44.9081 13.1212 46.671 15.2806 46.671Z" fill="#F4B430"/>
<path d="M42.2743 36.6077C44.4337 36.6077 46.1844 34.8448 46.1844 32.67C46.1844 30.4953 44.4337 28.7324 42.2743 28.7324C40.1148 28.7324 38.3643 30.4953 38.3643 32.67C38.3643 34.8448 40.1148 36.6077 42.2743 36.6077Z" fill="#F4B430"/>
<path d="M39.0182 50.482C41.1502 50.1367 42.6006 48.1162 42.2577 45.9691C41.9147 43.822 39.9084 42.3613 37.7764 42.7067C35.6444 43.052 34.194 45.0726 34.5369 47.2197C34.8799 49.3668 36.8862 50.8274 39.0182 50.482Z" fill="#F4B430"/>
<path d="M61.1367 125V121.439C60.7342 121.109 57.5316 113.33 57.5316 113.33L54.9787 118.518C53.6526 121.213 50.7105 121.213 49.3859 118.518L46.833 113.33L44.2801 118.517C42.9555 121.211 40.0119 121.211 38.6874 118.517L36.1344 113.33L33.5815 118.518C32.2555 121.213 29.3134 121.213 27.9888 118.518L25.4359 113.33L22.883 118.518C21.5569 121.211 18.6148 121.211 17.2902 118.517L14.7373 113.33L12.1844 118.517C10.8599 121.211 7.91622 121.213 6.59167 118.518L4.03874 113.33L0 121.539V125H61.1367Z" fill="#FFD592"/>
<path d="M58.7795 125V122.082C58.4642 121.484 58.0247 120.545 57.3632 119.019L57.0909 119.572C56.0623 121.661 54.2271 122.91 52.1833 122.912C50.138 122.912 48.3029 121.663 47.2758 119.57L46.8348 118.675L46.3938 119.57C45.3652 121.662 43.5301 122.91 41.4863 122.91C39.441 122.91 37.6073 121.662 36.5787 119.57L36.1377 118.675L35.6967 119.572C34.6681 121.663 32.833 122.912 30.7892 122.912H30.7877C28.7439 122.912 26.9102 121.663 25.8816 119.573L25.4392 118.676L24.9981 119.573C23.9696 121.663 22.1344 122.912 20.0906 122.912C18.0468 122.912 16.2116 121.663 15.1831 119.572L14.7421 118.676L14.3011 119.572C13.274 121.663 11.4374 122.912 9.39502 122.912C7.34973 122.912 5.51457 121.663 4.486 119.572L4.04502 118.676L2.36377 122.095V125H58.7795Z" fill="#E5A128"/>
<path d="M90.5567 36.3141L59.9351 45.0002L60.9696 49.2554L92.1121 42.7124C93.3701 42.4471 94.2122 41.3561 93.9532 40.2935L93.3006 37.6018C93.0416 36.5406 91.7925 35.9638 90.5567 36.3141Z" fill="#383530"/>
<path d="M60.9694 49.2554L59.9349 45.0002L53.6406 46.7858L43.2529 55.6195L42.3027 60.1533L44.3895 58.2501L55.2582 50.4552L60.9694 49.2554Z" fill="#4C727B"/>
<path d="M9.74121 53.968L13.5831 60.4811H28.5943V53.968H9.74121Z" fill="#4C727B"/>
<path d="M48.2312 53.968H28.5938V60.4811H44.3893L48.2312 53.968Z" fill="#557F89"/>
<path d="M13.5825 60.4812L16.094 64.7349H28.5937V60.4812H13.5825Z" fill="#426368"/>
<path d="M44.3893 60.4812H28.5938V64.7349H41.8778L44.3893 60.4812Z" fill="#507177"/>
<path d="M16.0907 64.7334L10.3589 82.0446L9.44578 84.7929L7.33682 91.1585L6.42965 93.9054L2.14074 106.854C1.25721 109.523 3.86042 112.115 7.4197 112.115H28.5948V64.7349L16.0907 64.7334Z" fill="#4C727B"/>
<path d="M55.8366 106.851L51.5478 93.9025L50.6346 91.1556L48.5257 84.7901L47.6185 82.0417L41.8807 64.7305H28.5952V112.111H50.5532C54.117 112.114 56.7202 109.521 55.8366 106.851Z" fill="#557F89"/>
<path d="M10.3595 82.0446L9.44482 84.7929H28.5939V82.0446H10.3595Z" fill="#5C858B"/>
<path d="M47.617 82.0446H28.5938V84.7929H48.5257L47.617 82.0446Z" fill="#659299"/>
<path d="M50.6332 91.157H28.5938V93.9039H51.5478L50.6332 91.157Z" fill="#659299"/>
<path d="M7.33738 91.157L6.42871 93.9039H28.5939V91.157H7.33738Z" fill="#5C858B"/>
<path d="M33.4481 26.8499C35.2314 24.3489 36.6152 21.2563 35.9522 18.2501C35.4283 15.8789 33.7293 13.9697 32.0081 12.2691C30.2869 10.5685 28.4325 8.8918 27.4439 6.67704C26.5841 4.74843 26.59 2.25944 27.8524 0.652771C25.8855 2.6708 24.0889 4.89301 23.0159 7.49677C21.8275 10.3822 21.6307 13.8132 23.1062 16.5615C24.4736 19.1086 27.1701 20.9702 27.7088 23.8124C28.2357 26.5891 26.4997 29.2614 24.6572 31.3942C22.8161 33.5284 20.6879 35.6642 20.1862 38.4439C19.3737 42.9315 23.0381 46.8573 26.3902 49.926C27.586 51.0185 29.3309 52.1691 30.6628 51.2495C26.3502 46.9333 25.2314 39.7256 28.0314 34.2886C29.4404 31.5551 31.6662 29.3508 33.4481 26.8499Z" fill="#C6C4C1"/>
<path d="M27.8535 0.654287C28.0666 0.433705 28.2812 0.216111 28.4973 0C28.2531 0.195245 28.04 0.41433 27.8535 0.654287Z" fill="#C6C4C1"/>
<path d="M34.0336 39.605C35.2175 44.2715 38.3033 46.689 33.8501 51.1587C33.933 49.3657 33.5822 47.5474 32.5906 46.0227C31.901 44.96 30.9583 44.0792 30.3145 42.9882C28.654 40.1788 30.8961 36.7285 32.7653 34.6314C34.3651 32.837 36.1914 31.0664 36.7907 28.7324C37.9984 30.2928 37.0897 32.5702 35.9886 34.2097C34.8861 35.8491 33.5467 37.6883 34.0336 39.605Z" fill="#C6C4C1"/>
</svg>
