<svg width="126" height="125" viewBox="0 0 126 125" fill="none" xmlns="http://www.w3.org/2000/svg">
<path d="M63.0011 0C51.5409 0 40.8023 3.09075 31.5627 8.4763C12.9859 19.3031 0.5 39.4414 0.5 62.4988C0.5 97.0188 28.4812 125 63.0011 125C93.7923 125 119.388 102.729 124.544 73.4185C125.175 69.8707 125.5 66.2207 125.5 62.4988C125.502 27.9835 97.5188 0 63.0011 0ZM63.0011 19.8135C53.3508 19.8135 53.367 4.84026 63.0011 4.84026C72.6492 4.84026 72.6353 19.8135 63.0011 19.8135Z" fill="#0D1F67"/>
<path d="M76.153 4.80545C73.4313 4.18359 70.6213 3.76126 67.7603 3.53154C66.2033 3.40624 64.6139 3.33667 63.0059 3.33667C50.4922 3.33667 38.8974 7.22555 29.3375 13.8525C24.1051 17.4769 19.476 21.9274 15.6405 27.0182C8.23622 36.8983 3.83447 49.2009 3.83447 62.5058C3.83447 95.1672 30.3283 121.659 63.0059 121.659C81.2439 121.659 97.5723 113.405 108.406 100.416C113.938 93.8051 118.038 85.9599 120.265 77.3699C121.502 72.6155 122.154 67.6315 122.154 62.5058C122.156 34.3529 102.505 10.778 76.153 4.80545ZM63.0059 4.83795C72.654 4.83795 72.6354 19.8066 63.0059 19.8066C53.3556 19.8066 53.3741 4.83795 63.0059 4.83795Z" fill="#153472"/>
<path d="M76.1529 4.80545C75.2341 5.23007 74.1575 5.45748 72.9184 5.45748C70.7094 5.45748 68.997 4.69868 67.7579 3.53154C66.201 3.40624 64.6115 3.33667 63.0035 3.33667C50.4898 3.33667 38.895 7.22555 29.3351 13.8525C24.1027 17.4769 19.4736 21.9274 15.6381 27.0182C12.8119 34.1069 11.2363 41.8476 11.2363 49.9596C11.2363 84.034 38.8602 111.656 72.9161 111.656C86.1352 111.656 98.3658 107.504 108.404 100.416C113.935 93.8051 118.035 85.9599 120.263 77.3699C121.5 72.6155 122.152 67.6315 122.152 62.5058C122.156 34.3529 102.505 10.778 76.1529 4.80545ZM62.9966 19.5304C58.9383 19.5304 55.648 16.2401 55.648 12.1818C55.648 8.12352 58.9383 4.83094 62.9966 4.83094C67.0549 4.83094 70.3451 8.12352 70.3451 12.1818C70.3451 16.2401 67.0549 19.5304 62.9966 19.5304Z" fill="#1B378E"/>
<path d="M63.0005 3.34131C50.4868 3.34131 38.8944 7.22098 29.3391 13.8479C29.2718 15.0824 29.2324 16.3191 29.2324 17.5674C29.2324 53.5516 58.4016 82.7207 94.3834 82.7207C103.588 82.7207 112.343 80.8111 120.272 77.3654C121.508 72.6156 122.16 67.6384 122.16 62.4988C122.16 29.8282 95.6735 3.34131 63.0005 3.34131ZM63.0005 19.8135C53.3502 19.8135 53.3664 4.84025 63.0005 4.84025C72.6486 4.84025 72.6347 19.8135 63.0005 19.8135Z" fill="#26479B"/>
<path d="M66.2237 18.5535C65.2537 18.702 64.2513 18.8018 63.1817 18.8018C61.996 18.8018 60.8891 18.6858 59.8287 18.5048C50.9185 26.6191 26.2764 50.9689 26.2764 72.1399C26.2764 97.984 42.7184 109.293 63.0007 109.293C83.2829 109.293 99.725 97.984 99.725 72.1399C99.725 50.9991 75.164 26.698 66.2237 18.5535Z" fill="#0D1F67"/>
<path d="M94.3867 70.7408C94.3867 92.8259 80.3347 102.493 63.0039 102.493C45.6708 102.493 31.6211 92.8259 31.6211 70.7408C31.6211 48.6533 63.0039 22.5145 63.0039 22.5145C63.0039 22.5145 94.3867 48.6533 94.3867 70.7408Z" fill="white"/>
<path d="M70.3105 73.6898C68.4983 75.6691 65.8996 76.9175 63.0038 76.9175C57.5231 76.9175 53.0819 72.4763 53.0819 66.9956C53.0819 63.4733 54.9242 60.385 57.6901 58.6261C57.4975 57.5147 57.3746 56.38 57.3746 55.2129C57.3746 52.3426 58.0057 49.6208 59.1102 47.1589C49.8055 48.9757 42.7842 57.1596 42.7842 66.9956C42.7842 78.1612 51.8359 87.2152 63.0038 87.2152C71.5914 87.2152 78.9098 81.8552 81.8404 74.3024C80.3113 74.683 78.7172 74.9081 77.0675 74.9081C74.6891 74.9057 72.4197 74.4625 70.3105 73.6898Z" fill="#52B0D1"/>
<path d="M53.0796 66.9934C53.0796 72.4741 57.5208 76.9153 63.0014 76.9153C65.8972 76.9153 68.4961 75.6693 70.3083 73.6877C63.7997 71.307 58.9107 65.6059 57.6879 58.6216C54.922 60.3851 53.0796 63.4711 53.0796 66.9934Z" fill="#1F2231"/>
<path d="M63.0017 46.7761C61.6698 46.7761 60.3682 46.9153 59.1082 47.1589C58.0014 49.6185 57.3726 52.3403 57.3726 55.2129C57.3726 56.3801 57.4956 57.5147 57.6882 58.6262C59.2266 57.6493 61.0434 57.0739 63.0017 57.0739C68.4801 57.0739 72.9236 61.5173 72.9236 66.9957C72.9236 69.5806 71.9259 71.9264 70.3086 73.6922C72.4178 74.4649 74.6894 74.9058 77.0654 74.9058C78.7152 74.9058 80.307 74.6807 81.8384 74.3001C82.7202 72.0308 83.2214 69.5759 83.2214 66.9957C83.2214 55.8278 74.1696 46.7761 63.0017 46.7761Z" fill="#6BBDE3"/>
<path d="M70.3104 73.6899C71.9276 71.9241 72.9254 69.5783 72.9254 66.9934C72.9254 61.515 68.4819 57.0715 63.0036 57.0715C61.0452 57.0715 59.2283 57.647 57.6899 58.6239C58.9128 65.6081 63.8018 71.3092 70.3104 73.6899Z" fill="#2E3242"/>
<path d="M63.0008 21.2057C58.0236 21.2057 53.9746 17.159 53.9746 12.1818C53.9746 7.20463 58.0236 3.15564 63.0008 3.15564C67.9779 3.15564 72.0247 7.20463 72.0247 12.1818C72.0247 17.159 67.9779 21.2057 63.0008 21.2057ZM63.0008 6.69183C59.9727 6.69183 57.5108 9.15605 57.5108 12.1818C57.5108 15.2099 59.9727 17.6718 63.0008 17.6718C66.0288 17.6718 68.4907 15.2075 68.4907 12.1818C68.493 9.15605 66.0288 6.69183 63.0008 6.69183Z" fill="#0D1F67"/>
</svg>
