<svg width="84" height="125" viewBox="0 0 84 125" fill="none" xmlns="http://www.w3.org/2000/svg">
<path d="M32.0885 21.3158C32.0885 33.09 26.654 42.6333 19.953 42.6333C13.2502 42.6333 7.81738 33.09 7.81738 21.3158C7.81738 9.54324 19.953 0 19.953 0C19.953 0 32.0885 9.54324 32.0885 21.3158Z" fill="#FFD592"/>
<path d="M27.8682 21.3158C27.8682 28.9959 24.3231 35.2219 19.9519 35.2219C15.5807 35.2219 12.0356 28.9959 12.0356 21.3158C12.0356 13.6374 19.9519 7.41156 19.9519 7.41156C19.9519 7.41156 27.8682 13.6374 27.8682 21.3158Z" fill="#F4B430"/>
<path d="M23.6155 23.9044C23.6155 28.8881 21.9752 32.9276 19.9509 32.9276C17.9266 32.9276 16.2881 28.8881 16.2881 23.9044C16.2881 18.9206 19.9509 14.8812 19.9509 14.8812C19.9509 14.8812 23.6155 18.9206 23.6155 23.9044Z" fill="#E5A128"/>
<path d="M20.2077 125V44.3869H8.24618C4.86666 44.3869 2.12549 47.0593 2.12549 50.3578V125H20.2077Z" fill="#6F2354"/>
<path d="M39.0366 125V50.3578C39.0366 47.0593 36.2954 44.3869 32.9141 44.3869H20.2051V125H39.0366Z" fill="#7F3067"/>
<path d="M22.2742 39.3433C22.2742 38.0927 21.2347 37.0781 19.9512 37.0781C18.6676 37.0781 17.6299 38.0927 17.6299 39.3433V40.854H22.2742V39.3433Z" fill="#6B4D26"/>
<path d="M22.2742 40.8541H17.6299V44.63H22.2742V40.8541Z" fill="#563F1E"/>
<path d="M9.49681 70.873C9.49681 74.7311 7.37009 77.8586 4.7484 77.8586C2.12671 77.8586 0 74.7311 0 70.873C0 67.015 2.12671 63.8875 4.7484 63.8875C7.3718 63.8875 9.49681 67.015 9.49681 70.873Z" fill="#7F3067"/>
<path d="M8.23437 70.873C8.23437 73.7045 6.67433 76.0005 4.74902 76.0005C2.82542 76.0005 1.26367 73.7045 1.26367 70.873C1.26367 68.0415 3.49791 65.0834 4.74902 63.8875C6.07864 65.145 8.23437 68.0415 8.23437 70.873Z" fill="#913D7B"/>
<path d="M73.9598 40.0875C73.9598 50.4537 70.0238 58.8575 65.1696 58.8575C60.3154 58.8575 56.3794 50.4537 56.3794 40.0875C56.3794 29.7196 65.1696 21.3157 65.1696 21.3157C65.1696 21.3157 73.9598 29.7196 73.9598 40.0875Z" fill="#FFD592"/>
<path d="M70.9035 40.0875C70.9035 46.8489 68.3364 52.3305 65.1703 52.3305C62.0041 52.3305 59.437 46.8489 59.437 40.0875C59.437 33.3244 65.1703 27.8427 65.1703 27.8427C65.1703 27.8427 70.9035 33.3244 70.9035 40.0875Z" fill="#F4B430"/>
<path d="M68.5291 44.1884C68.5291 48.1491 67.0254 51.3621 65.1701 51.3621C63.3148 51.3621 61.811 48.1491 61.811 44.1884C61.811 40.2278 65.1701 37.0164 65.1701 37.0164C65.1701 37.0164 68.5291 40.2278 68.5291 44.1884Z" fill="#E5A128"/>
<path d="M65.1701 125V60.8781H53.5619C49.9861 60.8781 47.0879 63.7061 47.0879 67.1929V125H65.1701Z" fill="#6F2354"/>
<path d="M84.0002 125V67.1929C84.0002 63.7061 81.102 60.8781 77.5279 60.8781H65.1704V125H84.0002Z" fill="#7F3067"/>
<path d="M67.2368 55.8361C67.2368 54.5838 66.1974 53.5709 64.9138 53.5709C63.632 53.5709 62.5908 54.5855 62.5908 55.8361V57.3468H67.2368V55.8361Z" fill="#6B4D26"/>
<path d="M67.2383 57.3468H62.5923V61.1227H67.2383V57.3468Z" fill="#563F1E"/>
<path d="M59.4368 66.6573C59.4368 69.7147 57.7521 72.192 55.6732 72.192C53.596 72.192 51.9097 69.7147 51.9097 66.6573C51.9097 63.6 53.5943 61.1226 55.6732 61.1226C57.7521 61.1226 59.4368 63.6 59.4368 66.6573Z" fill="#7F3067"/>
<path d="M58.4344 66.6573C58.4344 68.9003 57.197 70.7207 55.6728 70.7207C54.1486 70.7207 52.9111 68.9003 52.9111 66.6573C52.9111 64.4144 54.6828 62.0687 55.6728 61.1226C56.7259 62.1201 58.4344 64.4144 58.4344 66.6573Z" fill="#913D7B"/>
</svg>
