<svg width="106" height="125" viewBox="0 0 106 125" fill="none" xmlns="http://www.w3.org/2000/svg">
<path d="M59.5781 0.55091C57.5022 0.283612 55.585 1.76068 55.3193 3.83372L46.9346 68.8504C46.667 70.9234 48.146 72.8381 50.2219 73.1054L71.7715 75.8754L81.1278 3.31892L59.5781 0.55091Z" fill="#C7C9C9"/>
<path d="M102.444 6.06319L81.1282 3.32092L71.772 75.8773L93.0857 78.6196C95.1635 78.8869 97.0807 77.4079 97.3464 75.3348L105.731 10.3182C105.999 8.24513 104.518 6.33049 102.444 6.06319Z" fill="#DDDDDD"/>
<path d="M83.977 35.4184C83.7708 35.3927 83.5726 35.3966 83.3684 35.3867C84.3161 34.2482 84.9703 32.8405 85.1725 31.2624C85.7436 26.8391 82.6149 22.7901 78.1876 22.2218C73.7584 21.6516 69.7058 24.776 69.1348 29.1993C68.9325 30.7773 69.2041 32.3039 69.8346 33.6463C69.6364 33.6047 69.446 33.5513 69.2399 33.5236C64.8106 32.9533 60.758 36.0797 60.187 40.501C59.6179 44.9243 62.7446 48.9714 67.1739 49.5416C69.3925 49.8287 71.506 49.1694 73.1457 47.9022C72.5311 50.7058 70.8597 54.9608 67.0054 55.9864L80.4399 57.715C76.7185 56.325 76.3041 51.4404 76.5281 48.3101C77.7911 49.9673 79.6766 51.1513 81.9111 51.4404C86.3384 52.0106 90.3929 48.8862 90.962 44.463C91.535 40.0357 88.4063 35.9886 83.977 35.4184Z" fill="#D40025"/>
<path d="M61.5749 10.7478L60.8552 12.4942L59.3047 12.2942L62.7447 4.79797L64.5905 5.03557L66.0041 13.1575L64.42 12.9535L64.1662 11.0824L61.5749 10.7478ZM63.4921 6.05526L62.015 9.65685L64.0076 9.91227L63.4921 6.05526Z" fill="#D40025"/>
<path d="M64.1625 16.8421C64.1069 16.8342 64.0514 16.8362 63.9979 16.8342C64.2556 16.5233 64.4341 16.1412 64.4876 15.7115C64.6423 14.5077 63.7917 13.4049 62.5862 13.2504C61.3827 13.096 60.2784 13.9454 60.1238 15.1492C60.0683 15.5789 60.1436 15.9947 60.3141 16.359C60.2605 16.3471 60.207 16.3313 60.1535 16.3253C58.948 16.1709 57.8456 17.0203 57.689 18.2241C57.5344 19.428 58.3869 20.5288 59.5904 20.6853C60.1951 20.7625 60.7701 20.5843 61.2142 20.2378C61.0477 21.0001 60.5936 22.1584 59.5448 22.4375L63.2008 22.9088C62.1877 22.5306 62.0767 21.2001 62.1362 20.3487C62.4812 20.8001 62.9947 21.1228 63.6014 21.2001C64.8049 21.3545 65.9092 20.5051 66.0638 19.3013C66.2185 18.0994 65.3659 16.9985 64.1625 16.8421Z" fill="#D40025"/>
<path d="M91.089 68.4207L91.8087 66.6744L93.3592 66.8743L89.9192 74.3706L88.0733 74.133L86.6597 66.0131L88.2438 66.217L88.4976 68.0881L91.089 68.4207ZM89.1718 73.1133L90.6488 69.5117L88.6563 69.2563L89.1718 73.1133Z" fill="#D40025"/>
<path d="M88.5016 62.3263C88.5571 62.3323 88.6126 62.3323 88.6662 62.3343C88.4084 62.6431 88.23 63.0273 88.1764 63.4549C88.0198 64.6588 88.8724 65.7596 90.0778 65.916C91.2813 66.0705 92.3856 65.2211 92.5403 64.0172C92.5938 63.5876 92.5205 63.1718 92.348 62.8075C92.4015 62.8174 92.457 62.8332 92.5106 62.8411C93.716 62.9956 94.8184 62.1462 94.973 60.9423C95.1297 59.7385 94.2791 58.6376 93.0716 58.4812C92.4689 58.404 91.8939 58.5822 91.4478 58.9287C91.6164 58.1664 92.0704 57.0081 93.1192 56.7289L89.4632 56.2577C90.4763 56.6359 90.5874 57.9664 90.5279 58.8178C90.1829 58.3664 89.6694 58.0436 89.0627 57.9664C87.8592 57.812 86.7548 58.6614 86.6002 59.8652C86.4455 61.069 87.2961 62.1719 88.5016 62.3263Z" fill="#D40025"/>
<path d="M60.068 46.0587C58.0001 45.7399 56.0451 47.1675 55.7259 49.2346L45.6857 114.018C45.3665 116.085 46.796 118.035 48.8639 118.354L69.9635 121.615L81.1656 49.3197L60.068 46.0587Z" fill="#C7C9C9"/>
<path d="M102.777 52.6599L81.1679 49.3197L69.9658 121.615L91.5769 124.955C93.6448 125.276 95.5978 123.846 95.919 121.781L105.955 56.9981C106.276 54.931 104.847 52.9807 102.777 52.6599Z" fill="#DDDDDD"/>
<path d="M78.7127 66.8407L62.2129 83.4052L72.9272 104.173L89.427 87.6107L78.7127 66.8407Z" fill="#272A2B"/>
<path d="M62.3698 56.2537L61.6065 57.9803L60.062 57.7407L63.6923 50.3356L65.5302 50.6207L66.7357 58.7743L65.1575 58.5307L64.9513 56.6537L62.3698 56.2537ZM64.406 51.6107L62.8377 55.1746L64.8224 55.4815L64.406 51.6107Z" fill="#272A2B"/>
<path d="M66.0136 64.0053L61.8619 68.1712L59.1655 62.948L63.3172 58.7821L66.0136 64.0053Z" fill="#272A2B"/>
<path d="M89.2701 114.76L90.0354 113.034L91.58 113.273L87.9496 120.678L86.1118 120.395L84.9043 112.242L86.4825 112.485L86.6887 114.362L89.2701 114.76ZM87.2359 119.403L88.8042 115.841L86.8196 115.534L87.2359 119.403Z" fill="#272A2B"/>
<path d="M85.6284 107.011L89.7782 102.845L92.4726 108.068L88.3249 112.234L85.6284 107.011Z" fill="#272A2B"/>
<path d="M6.49773 6.89068C4.43179 7.22331 3.01225 9.18152 3.34336 11.2447L13.7504 75.9703C14.0815 78.0334 16.0443 79.4511 18.1103 79.1204L39.9672 75.6139L28.3547 3.38611L6.49773 6.89068Z" fill="#C7C9C9"/>
<path d="M49.1685 0.0478812L28.3545 3.38612L39.967 75.6139L60.7811 72.2756C62.847 71.943 64.2666 69.9848 63.9355 67.9216L53.5284 3.19605C53.1993 1.13489 51.2345 -0.282776 49.1685 0.0478812Z" fill="#DDDDDD"/>
<path d="M30.4228 23.17C30.4228 23.17 18.0926 40.5167 18.844 45.1894C19.5975 49.8642 23.6203 53.1054 27.8315 52.4302C30.0976 52.0659 31.9534 50.6383 33.0677 48.6702C33.4464 51.2422 33.3136 55.0497 29.9391 57.1069L35.7304 56.1783L41.5218 55.2497C37.6496 54.9745 36.345 51.0046 35.9049 48.2148C37.5802 49.7355 39.787 50.5136 42.0571 50.1493C46.2683 49.4741 49.0738 45.1379 48.3223 40.4632C47.5709 35.7905 30.4228 23.17 30.4228 23.17Z" fill="#272A2B"/>
<path d="M11.7539 16.4639L11.5576 18.3429L10.0151 18.5904L11.1889 10.4269L13.0248 10.1339L16.6868 17.5212L15.1086 17.7727L14.3334 16.0501L11.7539 16.4639ZM12.2615 11.4209L11.8669 15.2918L13.8496 14.973L12.2615 11.4209Z" fill="#272A2B"/>
<path d="M13.586 19.517C13.586 19.517 10.4315 23.9541 10.6258 25.148C10.8181 26.3439 11.8452 27.1716 12.9238 26.9993C13.5027 26.9063 13.9766 26.5419 14.2621 26.039C14.3592 26.6964 14.3255 27.6705 13.463 28.1972L14.9441 27.9596L16.4252 27.722C15.4338 27.6527 15.1007 26.637 14.9877 25.9222C15.416 26.3123 15.981 26.5103 16.56 26.4172C17.6385 26.2449 18.3543 25.1362 18.1639 23.9402C17.9716 22.7424 13.586 19.517 13.586 19.517Z" fill="#272A2B"/>
<path d="M55.8474 62.8272L56.0437 60.9501L57.5862 60.7026L56.4145 68.8661L54.5765 69.1591L50.9165 61.7718L52.4928 61.5204L53.268 63.2429L55.8474 62.8272ZM55.3418 67.8702L55.7344 63.9993L53.7517 64.3161L55.3418 67.8702Z" fill="#272A2B"/>
<path d="M54.0169 59.774C54.0169 59.774 57.1693 55.3368 56.977 54.1429C56.7847 52.947 55.7557 52.1194 54.6791 52.2916C54.0982 52.3847 53.6243 52.749 53.3388 53.2519C53.2416 52.5946 53.2754 51.6204 54.1378 51.0938L52.6567 51.3313L51.1757 51.5689C52.1671 51.6382 52.5001 52.654 52.6131 53.3687C52.1849 52.9787 51.6198 52.7807 51.0409 52.8737C49.9623 53.046 49.2466 54.1548 49.4369 55.3507C49.6292 56.5466 54.0169 59.774 54.0169 59.774Z" fill="#272A2B"/>
<path d="M3.35568 50.4583C1.27784 50.7058 -0.221028 52.6066 0.0268057 54.6816L7.78698 119.775C8.03283 121.851 9.93618 123.347 12.016 123.1L33.6409 120.53L24.9807 47.8883L3.35568 50.4583Z" fill="#C7C9C9"/>
<path d="M46.2728 45.3559L24.9829 47.8863L33.6432 120.528L54.9311 117.997C57.0109 117.75 58.5078 115.849 58.262 113.774L50.5018 48.6803C50.252 46.6052 48.3486 45.1084 46.2728 45.3559Z" fill="#DDDDDD"/>
<path d="M35.8532 71.4996C32.0842 71.947 29.1855 74.9467 28.3449 78.7799C26.6279 75.2496 23.1027 73.0142 19.3356 73.4637C14.4424 74.0458 11.0025 78.9166 11.6488 84.3457C12.2952 89.7748 31.1504 102.31 31.1504 102.31C31.1504 102.31 46.5299 85.704 45.8836 80.2748C45.2353 74.8457 40.7445 70.9175 35.8532 71.4996Z" fill="#D40025"/>
<path d="M11.8074 64.7617C10.9014 64.8706 10.2015 65.5913 10.0013 66.5139C9.58689 65.6645 8.73826 65.126 7.83218 65.2349C6.65448 65.3735 5.82575 66.5476 5.98238 67.8524C6.13703 69.1592 10.6754 72.1767 10.6754 72.1767C10.6754 72.1767 14.375 68.1791 14.2204 66.8743C14.0637 65.5675 12.9852 64.6231 11.8074 64.7617Z" fill="#D40025"/>
<path d="M7.86016 59.7563L7.58854 61.6234L6.03613 61.8075L7.54092 53.6995L9.38879 53.4797L12.7454 61.0096L11.1573 61.1977L10.4535 59.4454L7.86016 59.7563ZM8.57395 54.737L8.02274 58.5901L10.0173 58.3525L8.57395 54.737Z" fill="#D40025"/>
<path d="M46.0344 102.482C46.9425 102.373 47.6404 101.653 47.8426 100.73C48.255 101.579 49.1036 102.118 50.0097 102.009C51.1894 101.868 52.0161 100.696 51.8615 99.3895C51.7048 98.0828 47.1685 95.0652 47.1685 95.0652C47.1685 95.0652 43.4669 99.0628 43.6235 100.368C43.7781 101.676 44.8587 102.621 46.0344 102.482Z" fill="#D40025"/>
<path d="M49.9824 107.488L50.254 105.621L51.8065 105.437L50.3016 113.545L48.4538 113.764L45.0991 106.234L46.6852 106.046L47.3871 107.799L49.9824 107.488ZM49.2687 112.507L49.8218 108.654L47.8272 108.892L49.2687 112.507Z" fill="#D40025"/>
</svg>
