<svg width="100" height="125" viewBox="0 0 100 125" fill="none" xmlns="http://www.w3.org/2000/svg">
<path d="M100 57.7472C100 65.7357 98.1524 73.2675 94.8552 79.9761C86.7121 96.6208 69.6893 108.086 50.001 108.086C22.3935 108.086 0 85.5423 0 57.7492C0 42.2468 6.9747 28.3772 17.9298 19.1408C26.6155 11.8202 37.7924 7.41229 50.001 7.41229C77.6066 7.4103 100 29.9542 100 57.7472Z" fill="#02A7D4"/>
<path d="M100 57.7472C100 60.1695 99.8257 62.5578 99.495 64.8764C98.7445 70.2313 97.1563 75.305 94.8551 79.9761C86.1873 87.2787 74.9926 91.6866 62.7839 91.6866C35.1763 91.6866 12.8008 69.1607 12.8008 41.3676C12.8008 33.3792 14.6504 25.8293 17.9298 19.1408C23.4747 14.4538 30.0493 10.9769 37.2715 9.08096C41.3351 7.99245 45.6066 7.41229 50.0029 7.41229C77.6066 7.4103 100 29.9542 100 57.7472Z" fill="#13C0E5"/>
<path d="M99.9996 57.7472C99.9996 60.1695 99.8253 62.5578 99.4946 64.8764C95.431 65.947 91.1575 66.5271 86.7632 66.5271C59.1556 66.5271 36.7622 44.0012 36.7622 16.1902C36.7622 13.768 36.9364 11.3976 37.2691 9.08096C41.3327 7.99245 45.6043 7.41229 50.0006 7.41229C77.6062 7.4103 99.9996 29.9542 99.9996 57.7472Z" fill="#53DDF4"/>
<path d="M81.7986 117.857H18.2008C14.8739 117.857 12.1787 119.456 12.1787 121.429C12.1787 123.401 14.8739 125 18.2008 125H81.7986C85.1236 125 87.8188 123.401 87.8188 121.429C87.8188 119.458 85.1236 117.857 81.7986 117.857Z" fill="#6F2354"/>
<path d="M82.1907 106.848H17.8107C14.7016 106.848 12.1787 109.384 12.1787 112.516V112.659C12.1787 115.789 14.6996 118.327 17.8107 118.327H82.1907C85.2998 118.327 87.8208 115.791 87.8208 112.659V112.516C87.8188 109.384 85.2998 106.848 82.1907 106.848Z" fill="#7F3067"/>
<path d="M76.2959 99.2844H23.7066C20.5599 99.2844 18.0093 101.097 18.0093 103.331C18.0093 105.568 20.5599 107.378 23.7066 107.378H76.2979C79.4446 107.378 81.9933 105.566 81.9933 103.331C81.9913 101.097 79.4426 99.2844 76.2959 99.2844Z" fill="#6F2354"/>
<path d="M24.8375 36.6268C22.5364 48.5407 18.2094 52.8968 6.375 55.2134C18.2113 57.5299 22.5364 61.886 24.8375 73.7999C27.1386 61.886 31.4656 57.5299 43.3 55.2134C31.4636 52.8948 27.1386 48.5407 24.8375 36.6268Z" fill="#F4B430"/>
<path d="M56.6373 10.5402C55.0234 18.8995 51.9876 21.9577 43.6821 23.5825C51.9876 25.2093 55.0234 28.2655 56.6373 36.6248C58.2513 28.2655 61.2891 25.2073 69.5945 23.5825C61.2891 21.9577 58.2533 18.9015 56.6373 10.5402Z" fill="#F4B430"/>
<path d="M28.4792 0C27.1761 6.75837 24.7225 9.22849 18.0093 10.5423C24.7225 11.8561 27.1761 14.3262 28.4792 21.0825C29.7842 14.3262 32.2378 11.8561 38.9511 10.5423C32.2378 9.22649 29.7842 6.75638 28.4792 0Z" fill="#F4B430"/>
</svg>
