<svg width="136" height="125" viewBox="0 0 136 125" fill="none" xmlns="http://www.w3.org/2000/svg">
<path d="M73.7201 67.9507C73.2737 67.5846 72.2992 68.0303 71.5518 68.9416L69.2061 71.8027C68.4607 72.712 68.2176 73.7546 68.664 74.1207L72.347 77.129L74.9139 79.2261L79.9701 73.0582L77.4032 70.9591L73.7201 67.9507Z" fill="#D33D65"/>
<path d="M79.9602 73.0388L74.8145 79.3165L123.759 119.303L128.905 113.025L79.9602 73.0388Z" fill="#E55575"/>
<path d="M135.751 118.812L131.641 115.273L128.915 113.044L123.859 119.212L126.585 121.443L130.782 124.873C131.231 125.237 132.205 124.793 132.951 123.882L135.296 121.021C136.044 120.114 136.197 119.178 135.751 118.812Z" fill="#D33D65"/>
<path d="M33.8926 35.7263L56.5804 44.6519L72.0956 25.8675C74.258 23.2491 78.513 24.9225 78.3037 28.3108L76.8129 52.6105L99.5028 61.5361C102.666 62.7796 102.385 67.3379 99.0943 68.1875L75.4836 74.2798L73.9929 98.5794C73.7837 101.968 69.3573 103.11 67.5297 100.247L54.43 79.7116L30.8194 85.8059C27.529 86.6554 25.0697 82.8035 27.2321 80.1851L42.7453 61.4008L29.6455 40.8656C27.82 38.0064 30.7297 34.4807 33.8926 35.7263Z" fill="#E5A128"/>
<path d="M39.3072 41.1342L57.0008 48.094L69.098 33.4462C70.7841 31.4048 74.1024 32.71 73.941 35.3522L72.777 54.3017L90.4705 61.2615C92.9358 62.2325 92.7186 65.786 90.1537 66.4486L71.7427 71.1999L70.5788 90.1493C70.4174 92.7916 66.9656 93.681 65.5406 91.4506L55.3247 75.4378L36.9137 80.1891C34.3468 80.8517 32.4316 77.8493 34.1176 75.8059L46.2148 61.1581L35.999 45.1453C34.572 42.911 36.8419 40.1632 39.3072 41.1342Z" fill="#F4B430"/>
<path d="M46.8192 48.637L57.5812 52.871L64.9392 43.9593C65.9656 42.7178 67.9825 43.5116 67.8868 45.1173L67.1793 56.6453L77.9433 60.8793C79.442 61.4683 79.3105 63.631 77.748 64.0349L66.5475 66.9259L65.842 78.4539C65.7424 80.0616 63.6418 80.6028 62.7768 79.2438L56.5608 69.5025L45.3624 72.3934C43.7999 72.7973 42.6359 70.9689 43.6623 69.7273L51.0204 60.8156L44.8063 51.0743C43.9393 49.7174 45.3185 48.046 46.8192 48.637Z" fill="#FFD592"/>
<path d="M13.8516 24.5822C12.1237 33.4461 8.87913 36.6872 0.000488281 38.4102C8.87913 40.1353 12.1237 43.3744 13.8516 52.2383C15.5775 43.3744 18.822 40.1353 27.7007 38.4102C18.822 36.6872 15.5795 33.4481 13.8516 24.5822Z" fill="#13C0E5"/>
<path d="M60.0865 24.5842C66.8865 24.5842 72.3989 19.0808 72.3989 12.2921C72.3989 5.50334 66.8865 0 60.0865 0C53.2864 0 47.7739 5.50334 47.7739 12.2921C47.7739 19.0808 53.2864 24.5842 60.0865 24.5842Z" fill="#E55575"/>
<path d="M13.852 61.2815C12.3812 68.8283 9.61696 71.5879 2.05566 73.0563C9.61696 74.5226 12.3812 77.2823 13.852 84.831C15.3208 77.2823 18.0851 74.5226 25.6464 73.0563C18.0851 71.5879 15.3228 68.8302 13.852 61.2815Z" fill="#F4B430"/>
</svg>
