<svg width="42" height="60" viewBox="0 0 42 60" fill="none" xmlns="http://www.w3.org/2000/svg">
<path d="M9.84821 41.6742C9.84821 41.6742 9.58833 45.0935 8.64129 46.236C7.69483 47.379 5.13916 47.4402 5.13916 47.4402C5.13916 47.4402 8.13144 48.0053 8.99244 48.5815C9.85402 49.1577 10.1371 53.4128 10.1371 53.4128C10.1371 53.4128 10.4092 49.2473 11.2574 48.5157C12.1056 47.7841 14.6828 47.2114 14.6828 47.2114C14.6828 47.2114 11.8318 46.6096 11.0871 45.9095C10.3418 45.2087 9.84821 41.6742 9.84821 41.6742Z" fill="#6B84AD"/>
<path d="M31.8232 41.6742C31.8232 41.6742 31.5633 45.0935 30.6163 46.236C29.6692 47.379 27.1135 47.4402 27.1135 47.4402C27.1135 47.4402 30.1058 48.0053 30.9674 48.5815C31.8284 49.1577 32.1121 53.4128 32.1121 53.4128C32.1121 53.4128 32.3842 49.2473 33.2324 48.5157C34.0806 47.7841 36.6578 47.2114 36.6578 47.2114C36.6578 47.2114 33.8068 46.6096 33.062 45.9095C32.3173 45.2087 31.8232 41.6742 31.8232 41.6742Z" fill="#6B84AD"/>
<path d="M10.1367 18.9298C10.1367 18.9298 10.4087 14.7644 11.2569 14.0328C12.1051 13.3012 14.6823 12.7285 14.6823 12.7285C14.6823 12.7285 11.8313 12.1273 11.0866 11.4266C10.3419 10.7264 9.84771 7.19128 9.84771 7.19128C9.84771 7.19128 9.58784 10.6106 8.6408 11.7531C7.69434 12.8962 5.13867 12.9573 5.13867 12.9573C5.13867 12.9573 8.13094 13.5224 8.99194 14.0986C9.85352 14.6748 10.1367 18.9298 10.1367 18.9298Z" fill="#6B84AD"/>
<path d="M31.8232 7.19128C31.8232 7.19128 31.5633 10.6106 30.6163 11.7531C29.6692 12.8962 27.1135 12.9573 27.1135 12.9573C27.1135 12.9573 30.1058 13.5224 30.9674 14.0986C31.8284 14.6748 32.1121 18.9298 32.1121 18.9298C32.1121 18.9298 32.3842 14.7644 33.2324 14.0328C34.0806 13.3012 36.6578 12.7285 36.6578 12.7285C36.6578 12.7285 33.8068 12.1273 33.062 11.4266C32.3173 10.7264 31.8232 7.19128 31.8232 7.19128Z" fill="#6B84AD"/>
<path d="M34.7847 28.5855C34.9975 27.3895 32.2575 26.9088 28.4327 26.9408C27.3124 24.3066 24.8254 22.4325 21.8837 22.2946C21.7215 16.9226 21.4151 12.8171 21.0006 12.8171C20.9355 12.8171 20.7361 16.95 20.5657 22.3481C17.0241 22.7893 13.6289 25.3862 13.0324 28.9679C9.59772 29.8753 7.16472 31.0125 7.20483 32.2213C7.24204 33.3243 10.0093 33.7328 13.776 33.6566C14.4445 35.0069 15.4811 36.172 16.7909 36.9752C17.8583 37.6294 19.0774 37.9722 20.2948 38.1951C20.314 43.3238 20.5 47.1825 21.0006 47.1825C21.4982 47.1825 21.7976 43.3674 21.9308 38.2812C22.897 38.1445 23.7778 37.6824 24.7428 37.2418C26.9956 36.2122 28.4833 33.9808 28.928 31.58C32.2127 30.7198 34.5917 29.6704 34.7847 28.5855ZM31.3901 29.1769C31.2901 29.6663 30.4012 30.1447 29.0536 30.5795C29.0641 30.413 29.0705 30.2466 29.0705 30.0807C29.0705 29.4201 28.9821 28.7817 28.8327 28.1682C30.4762 28.298 31.5047 28.617 31.3901 29.1769ZM10.6023 31.5602C10.5808 31.002 11.493 30.4678 12.9347 29.9923C12.9342 30.0219 12.9295 30.051 12.9295 30.0807C12.9295 30.8944 13.0592 31.6946 13.2969 32.4582C11.6778 32.3535 10.6221 32.0712 10.6023 31.5602Z" fill="#6B84AD"/>
<path d="M34.8952 0H7.10484C3.18122 0 0 3.18418 0 7.11216V52.8872C0 56.8152 3.18063 60 7.10484 60H34.8952C38.8188 60 42 56.8158 42 52.8872V7.11216C42 3.18418 38.8194 0 34.8952 0ZM4.82473 2.46248C5.37877 2.46248 5.82816 2.91238 5.82816 3.46703C5.82816 4.02169 5.37877 4.47157 4.82473 4.47157C4.27069 4.47157 3.8213 4.02169 3.8213 3.46703C3.82188 2.9118 4.27069 2.46248 4.82473 2.46248ZM4.82473 57.6335C4.27069 57.6335 3.8213 57.1837 3.8213 56.629C3.8213 56.0743 4.27069 55.6244 4.82473 55.6244C5.37877 55.6244 5.82816 56.0743 5.82816 56.629C5.82816 57.1837 5.37935 57.6335 4.82473 57.6335ZM34.2277 55.6244H7.77341C5.59097 55.6244 3.82188 53.8534 3.82188 51.6685V8.33089C3.82188 6.14602 5.59097 4.37497 7.77341 4.37497H34.2277C36.4102 4.37497 38.1793 6.14602 38.1793 8.33089V51.6691C38.1787 53.8534 36.4096 55.6244 34.2277 55.6244ZM38.1787 57.6335C37.6247 57.6335 37.1753 57.1837 37.1753 56.629C37.1753 56.0743 37.6241 55.6244 38.1787 55.6244C38.7333 55.6244 39.1821 56.0743 39.1821 56.629C39.1821 57.1837 38.7333 57.6335 38.1787 57.6335ZM38.1787 4.471C37.6247 4.471 37.1753 4.0211 37.1753 3.46645C37.1753 2.91179 37.6241 2.46191 38.1787 2.46191C38.7333 2.46191 39.1821 2.91179 39.1821 3.46645C39.1821 4.02169 38.7333 4.471 38.1787 4.471Z" fill="#6B84AD"/>
</svg>
