<svg width="343" height="343" viewBox="0 0 343 343" fill="none" xmlns="http://www.w3.org/2000/svg">
<path d="M259.101 156.862C259.101 156.862 261.482 148.802 269.559 131.746C280.61 108.409 264.723 82.1739 233.237 68.493C196.331 52.457 148.851 58.4307 114.627 68.2316C86.3187 76.3388 74.6265 97.5087 69.5309 118.613C66.9502 129.301 66.459 140.241 64.8311 151.078C62.6606 165.526 57.93 180.201 53.7858 194.352C48.7801 211.448 43.8183 230.75 50.8841 249.204C72.6481 306.047 192.256 308.499 239.328 282.195C265.935 267.327 275.742 245.467 266.755 219.955C260.106 201.08 253.641 175.289 259.101 156.862Z" fill="#6B84AD"/>
<path opacity="0.7" d="M259.101 156.862C259.101 156.862 261.482 148.802 269.559 131.746C280.61 108.409 264.723 82.1739 233.237 68.493C196.331 52.457 148.851 58.4307 114.627 68.2316C86.3187 76.3388 74.6265 97.5087 69.5309 118.613C66.9502 129.301 66.459 140.241 64.8311 151.078C62.6606 165.526 57.93 180.201 53.7858 194.352C48.7801 211.448 43.8183 230.75 50.8841 249.204C72.6481 306.047 192.256 308.499 239.328 282.195C265.935 267.327 275.742 245.467 266.755 219.955C260.106 201.08 253.641 175.289 259.101 156.862Z" fill="white"/>
<path opacity="0.3" d="M229.758 107.144C230.115 107.088 230.359 106.754 230.303 106.397C230.248 106.041 229.914 105.796 229.557 105.852L226.955 106.257L226.877 105.76L229.479 105.355C229.836 105.3 230.08 104.966 230.025 104.609C229.969 104.252 229.635 104.008 229.278 104.063L226.676 104.468L226.119 100.887L218.309 93.829L116.049 281.777L123.884 287.068L251.99 267.131L250.559 257.937L253.161 257.533C253.518 257.477 253.762 257.143 253.707 256.786C253.651 256.43 253.317 256.185 252.96 256.241L250.358 256.646L250.281 256.149L252.884 255.744C253.24 255.689 253.485 255.355 253.429 254.998C253.373 254.641 253.039 254.397 252.683 254.453L250.081 254.857L249.328 250.023L251.931 249.618C252.287 249.563 252.532 249.229 252.476 248.872C252.421 248.515 252.086 248.271 251.73 248.327L249.128 248.731L249.05 248.235L251.652 247.83C252.009 247.774 252.253 247.44 252.198 247.084C252.142 246.727 251.808 246.483 251.451 246.538L248.849 246.943L248.097 242.109L250.699 241.704C251.055 241.648 251.3 241.314 251.244 240.958C251.188 240.601 250.854 240.357 250.498 240.412L247.896 240.817L247.818 240.32L250.42 239.915C250.777 239.86 251.021 239.526 250.966 239.169C250.91 238.812 250.576 238.568 250.219 238.624L247.617 239.028L246.865 234.194L249.467 233.79C249.823 233.734 250.068 233.4 250.012 233.043C249.956 232.686 249.622 232.442 249.266 232.498L246.664 232.903L246.586 232.406L249.188 232.001C249.545 231.946 249.789 231.611 249.733 231.255C249.678 230.898 249.344 230.654 248.987 230.709L246.385 231.114L245.633 226.28L248.235 225.875C248.591 225.82 248.836 225.485 248.78 225.129C248.724 224.772 248.39 224.528 248.034 224.583L245.432 224.988L245.354 224.491L247.957 224.087C248.313 224.031 248.558 223.697 248.502 223.34C248.447 222.984 248.112 222.739 247.756 222.795L245.154 223.2L244.401 218.365L247.004 217.961C247.361 217.905 247.605 217.571 247.549 217.214C247.494 216.858 247.16 216.613 246.803 216.669L244.201 217.074L244.123 216.577L246.726 216.172C247.083 216.117 247.327 215.783 247.271 215.426C247.216 215.069 246.882 214.825 246.525 214.881L243.923 215.285L243.171 210.451L245.773 210.046C246.13 209.991 246.374 209.657 246.319 209.3C246.263 208.943 245.929 208.699 245.572 208.755L242.97 209.159L242.893 208.663L245.495 208.258C245.851 208.202 246.096 207.868 246.04 207.512C245.985 207.155 245.65 206.911 245.294 206.966L242.692 207.371L241.939 202.537L244.541 202.132C244.898 202.076 245.142 201.742 245.087 201.386C245.031 201.029 244.697 200.785 244.34 200.84L241.738 201.245L241.661 200.748L244.263 200.344C244.619 200.288 244.864 199.954 244.808 199.597C244.752 199.241 244.418 198.996 244.062 199.052L241.46 199.457L240.707 194.622L243.309 194.218C243.666 194.162 243.91 193.828 243.854 193.471C243.799 193.115 243.465 192.87 243.108 192.926L240.506 193.331L240.429 192.834L243.031 192.429C243.388 192.374 243.632 192.04 243.577 191.683C243.521 191.326 243.187 191.082 242.83 191.137L240.228 191.542L239.476 186.708L242.078 186.303C242.434 186.248 242.679 185.914 242.623 185.557C242.568 185.2 242.233 184.956 241.877 185.011L239.275 185.416L239.197 184.92L241.8 184.515C242.157 184.459 242.401 184.125 242.345 183.768C242.29 183.412 241.956 183.168 241.599 183.223L238.997 183.628L238.244 178.794L240.847 178.389C241.204 178.333 241.448 177.999 241.392 177.642C241.337 177.286 241.003 177.042 240.646 177.097L238.044 177.502L237.967 177.005L240.569 176.6C240.925 176.545 241.169 176.211 241.114 175.854C241.058 175.497 240.724 175.253 240.368 175.309L237.766 175.713L237.013 170.879L239.615 170.474C239.972 170.419 240.216 170.085 240.16 169.728C240.105 169.371 239.771 169.127 239.414 169.183L236.812 169.587L236.734 169.091L239.336 168.686C239.693 168.63 239.937 168.296 239.882 167.94C239.826 167.583 239.492 167.339 239.135 167.394L236.533 167.799L235.781 162.965L238.383 162.56C238.74 162.505 238.984 162.17 238.928 161.814C238.873 161.457 238.539 161.213 238.182 161.268L235.58 161.673L235.502 161.176L238.104 160.772C238.461 160.716 238.705 160.382 238.65 160.025C238.594 159.669 238.26 159.424 237.903 159.48L235.301 159.885L234.549 155.05L237.151 154.646C237.508 154.59 237.752 154.256 237.696 153.899C237.641 153.543 237.307 153.298 236.95 153.354L234.348 153.759L234.27 153.262L236.873 152.857C237.23 152.802 237.474 152.468 237.418 152.111C237.363 151.754 237.029 151.51 236.672 151.566L234.07 151.97L233.318 147.136L235.92 146.731C236.276 146.676 236.52 146.342 236.465 145.985C236.409 145.628 236.075 145.384 235.719 145.44L233.117 145.844L233.039 145.348L235.642 144.943C235.998 144.887 236.243 144.553 236.187 144.197C236.131 143.84 235.797 143.596 235.441 143.651L232.839 144.056L232.086 139.222L234.688 138.817C235.045 138.761 235.289 138.427 235.234 138.071C235.178 137.714 234.844 137.47 234.487 137.525L231.885 137.93L231.808 137.433L234.41 137.029C234.766 136.973 235.011 136.639 234.955 136.282C234.899 135.925 234.565 135.681 234.209 135.737L231.607 136.142L230.854 131.307L233.456 130.903C233.813 130.847 234.057 130.513 234.001 130.156C233.946 129.799 233.612 129.555 233.255 129.611L230.653 130.016L230.576 129.519L233.178 129.114C233.534 129.059 233.779 128.724 233.723 128.368C233.667 128.011 233.333 127.767 232.977 127.822L230.375 128.227L229.622 123.393L232.224 122.988C232.581 122.933 232.825 122.599 232.769 122.242C232.714 121.885 232.38 121.641 232.023 121.696L229.421 122.101L229.344 121.605L231.946 121.2C232.302 121.144 232.546 120.81 232.491 120.453C232.435 120.097 232.101 119.852 231.745 119.908L229.143 120.313L228.39 115.479L230.992 115.074C231.349 115.018 231.593 114.684 231.537 114.327C231.482 113.971 231.148 113.726 230.791 113.782L228.189 114.187L228.111 113.69L230.713 113.285C231.07 113.23 231.314 112.896 231.259 112.539C231.203 112.182 230.869 111.938 230.512 111.994L227.91 112.398L227.158 107.564L229.758 107.144Z" fill="black"/>
<path d="M120.187 283.588L238.97 265.102L212.458 94.738L93.6747 113.223C90.6439 113.695 88.5695 116.534 89.0407 119.565L113.845 278.953C114.317 281.985 117.156 284.06 120.187 283.588Z" fill="#263238" stroke="#263238" stroke-miterlimit="10" stroke-linecap="round"/>
<path d="M115.642 278.674L122.409 277.621L119.466 258.707L112.698 259.76C111.706 259.914 111.027 260.844 111.181 261.836L113.566 277.158C113.72 278.15 114.65 278.829 115.642 278.674Z" fill="white" stroke="#263238" stroke-miterlimit="10" stroke-linecap="round"/>
<path d="M112.547 258.791L119.315 257.738L116.371 238.824L109.604 239.877C108.612 240.031 107.933 240.961 108.087 241.953L110.471 257.275C110.626 258.267 111.555 258.946 112.547 258.791Z" fill="#6B84AD" stroke="#263238" stroke-miterlimit="10" stroke-linecap="round"/>
<path d="M109.453 238.908L116.221 237.855L113.277 218.94L106.51 219.993C105.518 220.148 104.839 221.077 104.993 222.069L107.378 237.391C107.532 238.383 108.461 239.062 109.453 238.908Z" fill="white" stroke="#263238" stroke-miterlimit="10" stroke-linecap="round"/>
<path d="M106.359 219.025L113.126 217.972L110.183 199.057L103.415 200.11C102.423 200.265 101.744 201.194 101.898 202.186L104.283 217.508C104.437 218.5 105.367 219.179 106.359 219.025Z" fill="#6B84AD" stroke="#263238" stroke-miterlimit="10" stroke-linecap="round"/>
<path d="M100.321 180.227L104.377 179.596L94.0389 113.167L218.31 93.8284L244.822 264.192L120.551 283.531L107.321 198.51L103.265 199.141C102.273 199.295 101.343 198.616 101.189 197.624L98.8046 182.302C98.6495 181.311 99.3287 180.381 100.321 180.227Z" fill="white" stroke="#263238" stroke-miterlimit="10" stroke-linecap="round"/>
<path d="M113.61 149.463L114.017 158.772L160.396 151.207L159.183 143.412L113.61 149.463Z" fill="#6B84AD"/>
<path d="M211.402 104.268C211.608 105.593 212.849 106.5 214.175 106.294C215.5 106.087 216.407 104.846 216.2 103.521C215.994 102.195 214.753 101.289 213.428 101.495C212.103 101.702 211.196 102.943 211.402 104.268Z" fill="#263238" stroke="#263238" stroke-miterlimit="10" stroke-linecap="round"/>
<path d="M214.053 103.514L221.308 102.385C221.664 102.329 221.909 101.995 221.853 101.638C221.798 101.282 221.463 101.038 221.107 101.093L213.852 102.222C213.496 102.278 213.251 102.612 213.307 102.969C213.362 103.325 213.697 103.57 214.053 103.514Z" fill="white" stroke="#263238" stroke-miterlimit="10" stroke-linecap="round"/>
<path d="M214.332 105.303L221.586 104.174C221.943 104.118 222.187 103.784 222.132 103.428C222.076 103.071 221.742 102.827 221.385 102.882L214.131 104.011C213.774 104.067 213.53 104.401 213.585 104.758C213.641 105.114 213.975 105.359 214.332 105.303Z" fill="white" stroke="#263238" stroke-miterlimit="10" stroke-linecap="round"/>
<path d="M212.634 112.184C212.84 113.509 214.081 114.416 215.407 114.209C216.732 114.003 217.639 112.762 217.432 111.437C217.226 110.111 215.985 109.204 214.66 109.411C213.334 109.617 212.427 110.858 212.634 112.184Z" fill="#263238" stroke="#263238" stroke-miterlimit="10" stroke-linecap="round"/>
<path d="M215.285 111.43L222.54 110.301C222.897 110.245 223.141 109.911 223.085 109.554C223.03 109.198 222.696 108.953 222.339 109.009L215.084 110.138C214.728 110.194 214.483 110.528 214.539 110.884C214.594 111.24 214.929 111.485 215.285 111.43Z" fill="white" stroke="#263238" stroke-miterlimit="10" stroke-linecap="round"/>
<path d="M215.564 113.218L222.818 112.089C223.175 112.033 223.419 111.699 223.364 111.343C223.308 110.986 222.974 110.742 222.617 110.797L215.363 111.926C215.006 111.982 214.762 112.316 214.817 112.673C214.872 113.029 215.206 113.274 215.564 113.218Z" fill="white" stroke="#263238" stroke-miterlimit="10" stroke-linecap="round"/>
<path d="M213.865 120.099C214.072 121.424 215.313 122.331 216.638 122.124C217.963 121.918 218.87 120.677 218.664 119.352C218.457 118.026 217.216 117.119 215.891 117.326C214.566 117.532 213.659 118.773 213.865 120.099Z" fill="#263238" stroke="#263238" stroke-miterlimit="10" stroke-linecap="round"/>
<path d="M216.517 119.345L223.771 118.216C224.128 118.16 224.372 117.826 224.317 117.469C224.261 117.113 223.927 116.868 223.57 116.924L216.316 118.053C215.959 118.109 215.715 118.443 215.77 118.799C215.826 119.156 216.16 119.4 216.517 119.345Z" fill="white" stroke="#263238" stroke-miterlimit="10" stroke-linecap="round"/>
<path d="M216.795 121.133L224.05 120.004C224.406 119.948 224.651 119.614 224.595 119.258C224.539 118.901 224.205 118.657 223.849 118.712L216.594 119.841C216.237 119.897 215.993 120.231 216.049 120.588C216.104 120.945 216.439 121.189 216.795 121.133Z" fill="white" stroke="#263238" stroke-miterlimit="10" stroke-linecap="round"/>
<path d="M215.097 128.014C215.304 129.339 216.545 130.246 217.87 130.04C219.196 129.833 220.102 128.592 219.896 127.267C219.689 125.941 218.448 125.034 217.123 125.241C215.798 125.447 214.891 126.688 215.097 128.014Z" fill="#263238" stroke="#263238" stroke-miterlimit="10" stroke-linecap="round"/>
<path d="M217.749 127.26L225.003 126.131C225.36 126.075 225.604 125.741 225.549 125.384C225.493 125.028 225.159 124.783 224.802 124.839L217.548 125.968C217.191 126.024 216.947 126.358 217.002 126.715C217.058 127.071 217.392 127.315 217.749 127.26Z" fill="white" stroke="#263238" stroke-miterlimit="10" stroke-linecap="round"/>
<path d="M218.027 129.048L225.282 127.919C225.638 127.864 225.883 127.529 225.827 127.173C225.772 126.816 225.437 126.572 225.081 126.627L217.826 127.757C217.47 127.812 217.225 128.146 217.281 128.503C217.336 128.86 217.671 129.104 218.027 129.048Z" fill="white" stroke="#263238" stroke-miterlimit="10" stroke-linecap="round"/>
<path d="M216.329 135.929C216.536 137.254 217.777 138.161 219.102 137.955C220.428 137.748 221.334 136.507 221.128 135.182C220.921 133.856 219.681 132.95 218.355 133.156C217.03 133.362 216.123 134.603 216.329 135.929Z" fill="#263238" stroke="#263238" stroke-miterlimit="10" stroke-linecap="round"/>
<path d="M218.981 135.175L226.235 134.046C226.592 133.99 226.836 133.656 226.781 133.299C226.725 132.943 226.391 132.698 226.034 132.754L218.78 133.883C218.423 133.939 218.179 134.273 218.234 134.63C218.289 134.986 218.623 135.23 218.981 135.175Z" fill="white" stroke="#263238" stroke-miterlimit="10" stroke-linecap="round"/>
<path d="M219.259 136.964L226.513 135.835C226.87 135.779 227.114 135.445 227.058 135.088C227.003 134.732 226.669 134.488 226.312 134.543L219.058 135.672C218.701 135.728 218.457 136.062 218.512 136.419C218.568 136.775 218.902 137.02 219.259 136.964Z" fill="white" stroke="#263238" stroke-miterlimit="10" stroke-linecap="round"/>
<path d="M217.561 143.844C217.767 145.169 219.008 146.076 220.334 145.87C221.659 145.663 222.566 144.422 222.359 143.097C222.153 141.772 220.912 140.865 219.587 141.071C218.262 141.278 217.355 142.519 217.561 143.844Z" fill="#263238" stroke="#263238" stroke-miterlimit="10" stroke-linecap="round"/>
<path d="M220.212 143.09L227.467 141.961C227.823 141.905 228.068 141.571 228.012 141.215C227.956 140.858 227.622 140.614 227.266 140.669L220.011 141.798C219.654 141.854 219.41 142.188 219.466 142.545C219.521 142.901 219.855 143.146 220.212 143.09Z" fill="white" stroke="#263238" stroke-miterlimit="10" stroke-linecap="round"/>
<path d="M220.491 144.879L227.745 143.75C228.102 143.694 228.346 143.36 228.291 143.004C228.235 142.647 227.901 142.403 227.544 142.458L220.29 143.587C219.933 143.643 219.689 143.977 219.744 144.334C219.8 144.69 220.134 144.935 220.491 144.879Z" fill="white" stroke="#263238" stroke-miterlimit="10" stroke-linecap="round"/>
<path d="M218.793 151.759C218.999 153.084 220.24 153.991 221.566 153.785C222.891 153.578 223.798 152.337 223.591 151.012C223.385 149.687 222.144 148.78 220.819 148.986C219.493 149.193 218.586 150.434 218.793 151.759Z" fill="#263238" stroke="#263238" stroke-miterlimit="10" stroke-linecap="round"/>
<path d="M221.444 151.005L228.699 149.876C229.055 149.82 229.3 149.486 229.244 149.13C229.188 148.773 228.854 148.529 228.498 148.584L221.243 149.713C220.887 149.769 220.642 150.103 220.698 150.46C220.753 150.816 221.088 151.061 221.444 151.005Z" fill="white" stroke="#263238" stroke-miterlimit="10" stroke-linecap="round"/>
<path d="M221.723 152.794L228.977 151.665C229.334 151.609 229.578 151.275 229.523 150.919C229.467 150.562 229.133 150.318 228.776 150.373L221.522 151.502C221.165 151.558 220.921 151.892 220.976 152.249C221.031 152.605 221.365 152.85 221.723 152.794Z" fill="white" stroke="#263238" stroke-miterlimit="10" stroke-linecap="round"/>
<path d="M220.024 159.675C220.231 161 221.472 161.907 222.797 161.7C224.122 161.494 225.029 160.253 224.823 158.928C224.616 157.602 223.375 156.695 222.05 156.902C220.725 157.108 219.818 158.349 220.024 159.675Z" fill="#263238" stroke="#263238" stroke-miterlimit="10" stroke-linecap="round"/>
<path d="M222.676 158.921L229.93 157.792C230.287 157.736 230.531 157.402 230.475 157.045C230.42 156.689 230.086 156.444 229.729 156.5L222.475 157.629C222.118 157.685 221.874 158.019 221.929 158.375C221.985 158.731 222.319 158.976 222.676 158.921Z" fill="white" stroke="#263238" stroke-miterlimit="10" stroke-linecap="round"/>
<path d="M222.954 160.709L230.209 159.58C230.565 159.525 230.81 159.19 230.754 158.834C230.698 158.477 230.364 158.233 230.008 158.288L222.753 159.417C222.396 159.473 222.152 159.807 222.208 160.164C222.263 160.521 222.597 160.765 222.954 160.709Z" fill="white" stroke="#263238" stroke-miterlimit="10" stroke-linecap="round"/>
<path d="M221.256 167.59C221.463 168.915 222.704 169.822 224.029 169.616C225.354 169.409 226.261 168.168 226.055 166.843C225.848 165.517 224.607 164.61 223.282 164.817C221.957 165.023 221.05 166.264 221.256 167.59Z" fill="#263238" stroke="#263238" stroke-miterlimit="10" stroke-linecap="round"/>
<path d="M223.908 166.836L231.162 165.707C231.519 165.651 231.763 165.317 231.707 164.96C231.652 164.604 231.318 164.359 230.961 164.415L223.707 165.544C223.35 165.6 223.106 165.934 223.161 166.291C223.217 166.647 223.551 166.891 223.908 166.836Z" fill="white" stroke="#263238" stroke-miterlimit="10" stroke-linecap="round"/>
<path d="M224.186 168.624L231.441 167.495C231.797 167.44 232.042 167.105 231.986 166.749C231.93 166.392 231.596 166.148 231.24 166.203L223.985 167.333C223.628 167.388 223.384 167.722 223.44 168.079C223.495 168.436 223.829 168.68 224.186 168.624Z" fill="white" stroke="#263238" stroke-miterlimit="10" stroke-linecap="round"/>
<path d="M222.488 175.505C222.695 176.83 223.936 177.737 225.261 177.531C226.586 177.324 227.493 176.083 227.287 174.758C227.08 173.432 225.839 172.526 224.514 172.732C223.189 172.939 222.282 174.18 222.488 175.505Z" fill="#263238" stroke="#263238" stroke-miterlimit="10" stroke-linecap="round"/>
<path d="M225.14 174.751L232.394 173.622C232.751 173.566 232.995 173.232 232.94 172.875C232.884 172.519 232.55 172.275 232.193 172.33L224.939 173.459C224.582 173.515 224.338 173.849 224.393 174.206C224.448 174.562 224.782 174.807 225.14 174.751Z" fill="white" stroke="#263238" stroke-miterlimit="10" stroke-linecap="round"/>
<path d="M225.418 176.539L232.672 175.41C233.029 175.355 233.273 175.021 233.217 174.664C233.162 174.307 232.828 174.063 232.471 174.118L225.217 175.248C224.86 175.303 224.616 175.637 224.671 175.994C224.727 176.351 225.061 176.595 225.418 176.539Z" fill="white" stroke="#263238" stroke-miterlimit="10" stroke-linecap="round"/>
<path d="M223.72 183.42C223.926 184.745 225.167 185.652 226.493 185.446C227.818 185.239 228.725 183.998 228.518 182.673C228.312 181.347 227.071 180.441 225.745 180.647C224.421 180.854 223.514 182.095 223.72 183.42Z" fill="#263238" stroke="#263238" stroke-miterlimit="10" stroke-linecap="round"/>
<path d="M226.371 182.666L233.626 181.537C233.982 181.481 234.226 181.147 234.171 180.791C234.115 180.434 233.781 180.19 233.425 180.245L226.17 181.374C225.813 181.43 225.569 181.764 225.625 182.121C225.68 182.477 226.014 182.722 226.371 182.666Z" fill="white" stroke="#263238" stroke-miterlimit="10" stroke-linecap="round"/>
<path d="M226.65 184.455L233.904 183.326C234.261 183.27 234.505 182.936 234.449 182.58C234.394 182.223 234.06 181.979 233.703 182.034L226.449 183.163C226.092 183.219 225.848 183.553 225.903 183.91C225.959 184.266 226.293 184.511 226.65 184.455Z" fill="white" stroke="#263238" stroke-miterlimit="10" stroke-linecap="round"/>
<path d="M224.952 191.335C225.158 192.66 226.399 193.567 227.725 193.361C229.05 193.154 229.957 191.913 229.75 190.588C229.544 189.263 228.303 188.356 226.978 188.562C225.652 188.769 224.745 190.01 224.952 191.335Z" fill="#263238" stroke="#263238" stroke-miterlimit="10" stroke-linecap="round"/>
<path d="M227.603 190.581L234.858 189.452C235.214 189.396 235.459 189.062 235.403 188.706C235.347 188.349 235.013 188.105 234.657 188.16L227.402 189.289C227.045 189.345 226.801 189.679 226.857 190.036C226.912 190.392 227.246 190.637 227.603 190.581Z" fill="white" stroke="#263238" stroke-miterlimit="10" stroke-linecap="round"/>
<path d="M227.882 192.37L235.136 191.241C235.493 191.185 235.737 190.851 235.681 190.495C235.626 190.138 235.292 189.894 234.935 189.949L227.681 191.078C227.324 191.134 227.08 191.468 227.135 191.825C227.19 192.182 227.524 192.426 227.882 192.37Z" fill="white" stroke="#263238" stroke-miterlimit="10" stroke-linecap="round"/>
<path d="M226.183 199.251C226.39 200.576 227.631 201.483 228.956 201.276C230.281 201.07 231.188 199.829 230.982 198.504C230.775 197.178 229.534 196.271 228.209 196.478C226.884 196.684 225.977 197.925 226.183 199.251Z" fill="#263238" stroke="#263238" stroke-miterlimit="10" stroke-linecap="round"/>
<path d="M228.835 198.496L236.089 197.367C236.446 197.311 236.69 196.977 236.634 196.621C236.579 196.264 236.245 196.02 235.888 196.075L228.634 197.204C228.277 197.26 228.033 197.594 228.088 197.951C228.144 198.308 228.478 198.552 228.835 198.496Z" fill="white" stroke="#263238" stroke-miterlimit="10" stroke-linecap="round"/>
<path d="M229.113 200.285L236.367 199.156C236.724 199.1 236.968 198.766 236.913 198.41C236.857 198.053 236.523 197.809 236.166 197.864L228.912 198.993C228.555 199.049 228.311 199.383 228.367 199.74C228.422 200.097 228.756 200.341 229.113 200.285Z" fill="white" stroke="#263238" stroke-miterlimit="10" stroke-linecap="round"/>
<path d="M227.415 207.166C227.622 208.491 228.863 209.398 230.188 209.192C231.513 208.985 232.42 207.744 232.214 206.419C232.007 205.093 230.766 204.187 229.441 204.393C228.116 204.599 227.209 205.84 227.415 207.166Z" fill="#263238" stroke="#263238" stroke-miterlimit="10" stroke-linecap="round"/>
<path d="M230.067 206.412L237.321 205.283C237.678 205.227 237.922 204.893 237.866 204.536C237.811 204.18 237.477 203.935 237.12 203.991L229.866 205.12C229.509 205.176 229.265 205.51 229.32 205.867C229.376 206.223 229.71 206.467 230.067 206.412Z" fill="white" stroke="#263238" stroke-miterlimit="10" stroke-linecap="round"/>
<path d="M230.345 208.2L237.6 207.071C237.956 207.016 238.2 206.682 238.145 206.325C238.089 205.968 237.755 205.724 237.399 205.779L230.144 206.909C229.787 206.964 229.543 207.298 229.599 207.655C229.654 208.012 229.988 208.256 230.345 208.2Z" fill="white" stroke="#263238" stroke-miterlimit="10" stroke-linecap="round"/>
<path d="M228.647 215.081C228.854 216.406 230.095 217.313 231.42 217.107C232.745 216.9 233.652 215.659 233.446 214.334C233.239 213.009 231.998 212.102 230.673 212.308C229.348 212.515 228.441 213.756 228.647 215.081Z" fill="#263238" stroke="#263238" stroke-miterlimit="10" stroke-linecap="round"/>
<path d="M231.299 214.327L238.553 213.198C238.91 213.142 239.154 212.808 239.098 212.452C239.043 212.095 238.709 211.851 238.352 211.906L231.098 213.035C230.741 213.091 230.497 213.425 230.552 213.782C230.607 214.138 230.942 214.383 231.299 214.327Z" fill="white" stroke="#263238" stroke-miterlimit="10" stroke-linecap="round"/>
<path d="M231.576 216.115L238.831 214.986C239.188 214.931 239.432 214.597 239.376 214.24C239.321 213.883 238.987 213.639 238.63 213.695L231.375 214.824C231.019 214.879 230.775 215.213 230.83 215.57C230.886 215.927 231.22 216.171 231.576 216.115Z" fill="white" stroke="#263238" stroke-miterlimit="10" stroke-linecap="round"/>
<path d="M229.879 222.996C230.085 224.321 231.326 225.228 232.651 225.022C233.977 224.815 234.884 223.574 234.677 222.249C234.471 220.924 233.23 220.017 231.904 220.223C230.58 220.43 229.672 221.671 229.879 222.996Z" fill="#263238" stroke="#263238" stroke-miterlimit="10" stroke-linecap="round"/>
<path d="M232.53 222.242L239.784 221.113C240.141 221.057 240.385 220.723 240.33 220.367C240.274 220.01 239.94 219.766 239.583 219.821L232.329 220.95C231.972 221.006 231.728 221.34 231.784 221.697C231.839 222.053 232.173 222.298 232.53 222.242Z" fill="white" stroke="#263238" stroke-miterlimit="10" stroke-linecap="round"/>
<path d="M232.809 224.031L240.063 222.902C240.42 222.846 240.664 222.512 240.608 222.156C240.553 221.799 240.219 221.555 239.862 221.61L232.608 222.739C232.251 222.795 232.007 223.129 232.062 223.486C232.118 223.842 232.452 224.087 232.809 224.031Z" fill="white" stroke="#263238" stroke-miterlimit="10" stroke-linecap="round"/>
<path d="M231.111 230.911C231.317 232.236 232.558 233.143 233.883 232.937C235.209 232.73 236.116 231.489 235.909 230.164C235.703 228.839 234.462 227.932 233.136 228.138C231.811 228.345 230.904 229.586 231.111 230.911Z" fill="#263238" stroke="#263238" stroke-miterlimit="10" stroke-linecap="round"/>
<path d="M233.762 230.157L241.017 229.028C241.373 228.972 241.617 228.638 241.562 228.282C241.506 227.925 241.172 227.681 240.816 227.736L233.561 228.865C233.204 228.921 232.96 229.255 233.016 229.612C233.071 229.968 233.405 230.213 233.762 230.157Z" fill="white" stroke="#263238" stroke-miterlimit="10" stroke-linecap="round"/>
<path d="M234.041 231.946L241.295 230.817C241.652 230.761 241.896 230.427 241.84 230.071C241.785 229.714 241.451 229.47 241.094 229.525L233.84 230.654C233.483 230.71 233.239 231.044 233.294 231.401C233.349 231.758 233.683 232.002 234.041 231.946Z" fill="white" stroke="#263238" stroke-miterlimit="10" stroke-linecap="round"/>
<path d="M232.342 238.826C232.549 240.151 233.789 241.058 235.115 240.852C236.44 240.645 237.347 239.404 237.141 238.079C236.934 236.754 235.693 235.847 234.368 236.053C233.043 236.26 232.136 237.501 232.342 238.826Z" fill="#263238" stroke="#263238" stroke-miterlimit="10" stroke-linecap="round"/>
<path d="M234.993 238.072L242.248 236.943C242.605 236.887 242.849 236.553 242.793 236.197C242.738 235.84 242.404 235.596 242.047 235.651L234.792 236.78C234.436 236.836 234.191 237.17 234.247 237.527C234.303 237.884 234.637 238.128 234.993 238.072Z" fill="white" stroke="#263238" stroke-miterlimit="10" stroke-linecap="round"/>
<path d="M235.272 239.861L242.526 238.732C242.883 238.677 243.127 238.342 243.072 237.986C243.016 237.629 242.682 237.385 242.325 237.44L235.071 238.57C234.714 238.625 234.47 238.959 234.526 239.316C234.581 239.673 234.915 239.917 235.272 239.861Z" fill="white" stroke="#263238" stroke-miterlimit="10" stroke-linecap="round"/>
<path d="M233.574 246.742C233.781 248.067 235.022 248.974 236.347 248.768C237.672 248.561 238.579 247.32 238.373 245.995C238.166 244.669 236.925 243.763 235.6 243.969C234.275 244.175 233.368 245.417 233.574 246.742Z" fill="#263238" stroke="#263238" stroke-miterlimit="10" stroke-linecap="round"/>
<path d="M236.225 245.988L243.48 244.859C243.837 244.803 244.081 244.469 244.025 244.112C243.97 243.756 243.636 243.512 243.279 243.567L236.024 244.696C235.668 244.752 235.424 245.086 235.479 245.443C235.535 245.799 235.869 246.044 236.225 245.988Z" fill="white" stroke="#263238" stroke-miterlimit="10" stroke-linecap="round"/>
<path d="M236.504 247.776L243.758 246.647C244.115 246.592 244.359 246.258 244.304 245.901C244.248 245.544 243.914 245.3 243.557 245.355L236.303 246.485C235.946 246.54 235.702 246.874 235.758 247.231C235.813 247.588 236.147 247.832 236.504 247.776Z" fill="white" stroke="#263238" stroke-miterlimit="10" stroke-linecap="round"/>
<path d="M234.806 254.657C235.013 255.982 236.254 256.889 237.579 256.683C238.904 256.476 239.811 255.235 239.605 253.91C239.398 252.585 238.157 251.678 236.832 251.884C235.507 252.091 234.6 253.332 234.806 254.657Z" fill="#263238" stroke="#263238" stroke-miterlimit="10" stroke-linecap="round"/>
<path d="M237.458 253.903L244.712 252.774C245.069 252.718 245.313 252.384 245.257 252.027C245.202 251.671 244.868 251.427 244.511 251.482L237.257 252.611C236.9 252.667 236.656 253.001 236.711 253.358C236.766 253.714 237.101 253.959 237.458 253.903Z" fill="white" stroke="#263238" stroke-miterlimit="10" stroke-linecap="round"/>
<path d="M237.735 255.691L244.99 254.562C245.347 254.507 245.591 254.173 245.535 253.816C245.48 253.459 245.146 253.215 244.789 253.271L237.534 254.4C237.178 254.455 236.933 254.789 236.989 255.146C237.045 255.503 237.379 255.747 237.735 255.691Z" fill="white" stroke="#263238" stroke-miterlimit="10" stroke-linecap="round"/>
<g opacity="0.3">
<path d="M131.084 120.403L132.886 120.122" stroke="black" stroke-miterlimit="10" stroke-linecap="round"/>
<path d="M134.688 119.841L136.49 119.562" stroke="black" stroke-miterlimit="10" stroke-linecap="round"/>
<path d="M113.449 125.69L115.251 125.409" stroke="black" stroke-miterlimit="10" stroke-linecap="round"/>
<path d="M117.053 125.128L118.855 124.848" stroke="black" stroke-miterlimit="10" stroke-linecap="round"/>
<path d="M120.657 124.568L122.459 124.287" stroke="black" stroke-miterlimit="10" stroke-linecap="round"/>
<path d="M124.261 124.007L126.063 123.726" stroke="black" stroke-miterlimit="10" stroke-linecap="round"/>
<path d="M127.866 123.446L129.668 123.166" stroke="black" stroke-miterlimit="10" stroke-linecap="round"/>
<path d="M131.47 122.885L133.272 122.605" stroke="black" stroke-miterlimit="10" stroke-linecap="round"/>
<path d="M135.075 122.324L136.877 122.044" stroke="black" stroke-miterlimit="10" stroke-linecap="round"/>
<path d="M113.835 128.172L115.637 127.892" stroke="black" stroke-miterlimit="10" stroke-linecap="round"/>
<path d="M117.439 127.611L119.241 127.331" stroke="black" stroke-miterlimit="10" stroke-linecap="round"/>
<path d="M121.044 127.05L122.846 126.77" stroke="black" stroke-miterlimit="10" stroke-linecap="round"/>
<path d="M124.648 126.489L126.45 126.209" stroke="black" stroke-miterlimit="10" stroke-linecap="round"/>
<path d="M128.253 125.928L130.055 125.648" stroke="black" stroke-miterlimit="10" stroke-linecap="round"/>
<path d="M131.857 125.367L133.659 125.087" stroke="black" stroke-miterlimit="10" stroke-linecap="round"/>
<path d="M135.461 124.807L137.263 124.526" stroke="black" stroke-miterlimit="10" stroke-linecap="round"/>
<path d="M114.221 130.654L116.023 130.374" stroke="black" stroke-miterlimit="10" stroke-linecap="round"/>
<path d="M117.825 130.094L119.628 129.813" stroke="black" stroke-miterlimit="10" stroke-linecap="round"/>
<path d="M121.43 129.533L123.232 129.252" stroke="black" stroke-miterlimit="10" stroke-linecap="round"/>
<path d="M125.034 128.971L126.837 128.691" stroke="black" stroke-miterlimit="10" stroke-linecap="round"/>
<path d="M128.639 128.411L130.441 128.13" stroke="black" stroke-miterlimit="10" stroke-linecap="round"/>
<path d="M132.243 127.85L134.045 127.569" stroke="black" stroke-miterlimit="10" stroke-linecap="round"/>
<path d="M135.847 127.289L137.649 127.009" stroke="black" stroke-miterlimit="10" stroke-linecap="round"/>
<path d="M114.608 133.137L116.41 132.856" stroke="black" stroke-miterlimit="10" stroke-linecap="round"/>
<path d="M118.212 132.576L120.014 132.295" stroke="black" stroke-miterlimit="10" stroke-linecap="round"/>
<path d="M121.816 132.015L123.619 131.735" stroke="black" stroke-miterlimit="10" stroke-linecap="round"/>
<path d="M125.421 131.454L127.223 131.173" stroke="black" stroke-miterlimit="10" stroke-linecap="round"/>
<path d="M129.025 130.893L130.827 130.613" stroke="black" stroke-miterlimit="10" stroke-linecap="round"/>
<path d="M132.629 130.332L134.431 130.052" stroke="black" stroke-miterlimit="10" stroke-linecap="round"/>
<path d="M136.233 129.771L138.036 129.491" stroke="black" stroke-miterlimit="10" stroke-linecap="round"/>
<path d="M112.555 119.949L114.358 119.669" stroke="black" stroke-miterlimit="10" stroke-linecap="round"/>
<path d="M116.16 119.388L117.962 119.107" stroke="black" stroke-miterlimit="10" stroke-linecap="round"/>
<path d="M119.764 118.827L121.566 118.547" stroke="black" stroke-miterlimit="10" stroke-linecap="round"/>
<path d="M123.368 118.266L125.17 117.986" stroke="black" stroke-miterlimit="10" stroke-linecap="round"/>
<path d="M126.972 117.705L128.775 117.425" stroke="black" stroke-miterlimit="10" stroke-linecap="round"/>
<path d="M130.577 117.144L132.379 116.864" stroke="black" stroke-miterlimit="10" stroke-linecap="round"/>
<path d="M134.181 116.584L135.983 116.303" stroke="black" stroke-miterlimit="10" stroke-linecap="round"/>
<path d="M136.356 117.675L112.617 121.369" stroke="black" stroke-miterlimit="10" stroke-linecap="round"/>
<path d="M119.21 115.735L128.364 114.311" stroke="black" stroke-miterlimit="10" stroke-linecap="round"/>
<path d="M107.832 141.337L208.831 125.619" stroke="black" stroke-miterlimit="10" stroke-linecap="round"/>
<path d="M109.098 149.471L210.096 133.753" stroke="black" stroke-miterlimit="10" stroke-linecap="round"/>
<path d="M110.364 157.605L211.362 141.887" stroke="black" stroke-miterlimit="10" stroke-linecap="round"/>
<path d="M111.63 165.739L212.628 150.021" stroke="black" stroke-miterlimit="10" stroke-linecap="round"/>
<path d="M112.896 173.873L213.894 158.155" stroke="black" stroke-miterlimit="10" stroke-linecap="round"/>
<path d="M114.161 182.007L215.16 166.289" stroke="black" stroke-miterlimit="10" stroke-linecap="round"/>
<path d="M115.427 190.141L216.425 174.424" stroke="black" stroke-miterlimit="10" stroke-linecap="round"/>
<path d="M116.693 198.275L217.692 182.558" stroke="black" stroke-miterlimit="10" stroke-linecap="round"/>
<path d="M117.959 206.409L218.957 190.692" stroke="black" stroke-miterlimit="10" stroke-linecap="round"/>
<path d="M119.225 214.544L220.223 198.826" stroke="black" stroke-miterlimit="10" stroke-linecap="round"/>
<path d="M120.49 222.678L221.489 206.96" stroke="black" stroke-miterlimit="10" stroke-linecap="round"/>
<path d="M121.757 230.812L222.754 215.094" stroke="black" stroke-miterlimit="10" stroke-linecap="round"/>
<path d="M123.022 238.946L224.021 223.228" stroke="black" stroke-miterlimit="10" stroke-linecap="round"/>
<path d="M126.028 258.264L227.027 242.546" stroke="black" stroke-miterlimit="10" stroke-linecap="round"/>
<path d="M127.031 264.703L228.029 248.986" stroke="black" stroke-miterlimit="10" stroke-linecap="round"/>
<path d="M128.033 271.143L229.031 255.425" stroke="black" stroke-miterlimit="10" stroke-linecap="round"/>
</g>
<path d="M122.241 149.161C122.241 149.161 113.626 158.486 118.604 157.017C123.582 155.548 130.398 145.809 128.945 149.854C127.491 153.899 127.575 156.663 129.917 153.868C132.259 151.074 133.561 150.524 133.095 151.985C132.628 153.447 134.556 152.453 134.556 152.453C134.556 152.453 139.323 149.628 138.857 151.089C138.39 152.55 138.051 152.603 139.407 152.392C140.762 152.18 143.813 151.706 143.813 151.706C143.813 151.706 143.527 152.098 147.594 151.465C151.661 150.832 153.25 149.89 155.284 149.573" stroke="#263238" stroke-miterlimit="10" stroke-linecap="round"/>
<path d="M118.325 161.92C118.325 161.92 124.968 157.762 125.804 158.673C126.64 159.584 125.495 161.151 128.493 160.337C131.491 159.524 134.225 157.016 134.435 158.371C134.647 159.727 136.574 158.733 136.574 158.733L138.269 158.469C138.269 158.469 141.372 158.334 142.336 157.836C143.3 157.339 144.309 152.669 143.564 159.033C142.819 165.397 140.227 159.9 146.403 157.203C152.579 154.506 153.732 157.451 153.732 157.451C153.732 157.451 154.41 157.346 155.712 156.796C157.015 156.246 158.16 154.68 159.388 155.877C160.616 157.075 162.799 153.263 162.799 153.263C162.799 153.263 163.869 153.444 165.33 153.911C166.791 154.378 167.808 154.22 167.808 154.22C167.808 154.22 169.555 154.295 170.911 154.084C172.266 153.873 173.411 152.306 174.533 152.826C175.656 153.346 177.343 148.57 176.492 154.257C175.641 159.943 170.143 162.535 172.38 159.062C174.616 155.59 177.351 153.082 179.851 151.304C182.352 149.527 183.082 149.76 183.633 151.063C184.182 152.365 184.861 152.26 186.163 151.71C187.466 151.16 186.344 150.641 187.466 151.16C188.588 151.68 188.927 151.627 189.944 151.469C190.96 151.31 186.193 154.135 190.96 151.31C195.727 148.485 197.429 137.113 194.937 143.402C192.444 149.691 193.385 151.28 196.722 150.414" stroke="#263238" stroke-miterlimit="10" stroke-linecap="round"/>
<path d="M119.049 173.262C119.049 173.262 127.198 165.399 126.701 164.435C126.203 163.471 123.598 164.571 121.7 167.99C119.802 171.41 121.135 173.285 126.242 170.408C131.348 167.53 123.922 171.116 129.164 171.342C134.406 171.567 135.965 168.2 136.124 169.217C136.282 170.234 134.534 170.159 138.654 169.865C142.774 169.57 140.763 167.801 144.988 168.185C149.213 168.568 151.089 167.235 151.089 167.235L153.8 166.813C153.8 166.813 148.324 167.318 155.441 166.211C162.559 165.103 165.699 156.284 162.265 160.984C158.831 165.683 160.451 167.167 163.968 165.231C167.485 163.296 167.485 163.296 167.485 163.296C167.485 163.296 171.936 158.437 169.835 165.013C167.735 171.588 165.248 166.768 173.066 163.468C180.884 160.169 180.681 163.325 183.287 162.225C185.893 161.126 185.47 158.414 187.196 160.576C188.92 162.737 188.815 162.059 191.526 161.637C194.237 161.216 193.508 160.982 195.88 160.613C198.252 160.244 198.592 160.191 200.964 159.822" stroke="#263238" stroke-miterlimit="10" stroke-linecap="round"/>
<path d="M120.421 197.695C120.421 197.695 126.1 194.034 127.003 188.686C127.907 183.338 123.433 190.283 123.916 197.845C124.398 205.407 121.746 195.059 129.669 192.437C137.592 189.816 128.969 194.629 129.858 195.878C130.747 197.128 137.231 191.954 137.156 193.701C137.081 195.448 138.542 195.915 142.526 192.518C146.51 189.121 140.018 189.785 139.709 192.263C139.401 194.74 141.329 193.746 146.255 191.938C151.18 190.13 146.36 192.616 149.41 192.141C152.46 191.666 159.178 185.761 157.853 188.398C156.527 191.034 157.808 192.57 159.291 190.951C160.775 189.331 163.922 185.023 164.187 186.718C164.45 188.412 163.578 189.589 163.578 189.589" stroke="#263238" stroke-miterlimit="10" stroke-linecap="round"/>
<path opacity="0.3" d="M88.5811 133.149C88.4679 133.022 88.3287 132.89 88.1599 132.753C87.8217 132.481 87.3628 132.196 86.7378 131.919C86.6521 131.881 86.5485 131.844 86.4367 131.808C86.4134 131.8 86.3887 131.793 86.364 131.785C83.6611 130.953 74.4193 130.551 71.3152 130.437C69.7148 130.379 68.2611 131.418 67.8523 132.966C67.8461 132.991 67.8392 133.015 67.8331 133.041C67.2047 135.559 57.8298 197.671 57.8298 197.671C57.8298 197.671 57.7633 199.069 57.6686 201.188C57.6267 202.13 57.5794 203.214 57.5307 204.381C57.5184 204.672 57.506 204.969 57.4937 205.27C57.469 205.873 57.4436 206.492 57.4189 207.121C57.3318 209.322 57.2467 211.64 57.1822 213.757C57.1363 215.269 57.1013 216.678 57.0834 217.868C57.069 218.82 57.0663 219.632 57.0779 220.244C57.1129 222.082 57.1513 223.486 57.3146 224.548C57.5863 226.318 58.2023 227.134 59.7211 227.404C60.1005 227.471 60.6499 227.552 61.3161 227.635C61.4491 227.652 61.587 227.669 61.7297 227.686C62.2984 227.754 62.9357 227.822 63.6148 227.887C63.7843 227.904 63.9572 227.919 64.1314 227.935C64.6548 227.982 65.1981 228.026 65.7497 228.066C66.1174 228.092 66.4885 228.117 66.8603 228.138C67.2321 228.159 67.6046 228.179 67.9737 228.194C68.7125 228.225 69.439 228.242 70.127 228.242C71.2877 228.242 72.336 228.19 73.1496 228.066C73.1509 228.066 73.1523 228.065 73.1537 228.065C73.1825 228.061 73.2147 228.057 73.2428 228.052C73.332 228.038 73.415 228.022 73.498 228.005C73.509 228.003 73.5214 228.001 73.5323 227.999C73.6304 227.979 73.723 227.957 73.8122 227.934C73.8294 227.93 73.8486 227.926 73.8657 227.921C73.9673 227.894 74.0619 227.865 74.1491 227.834C74.3137 227.774 74.4708 227.715 74.621 227.657C74.7713 227.598 74.9153 227.539 75.0532 227.481C75.7413 227.189 76.2743 226.901 76.7092 226.591C76.8835 226.468 77.0419 226.341 77.1887 226.209C77.3355 226.078 77.47 225.942 77.5969 225.8C77.66 225.728 77.7217 225.656 77.7814 225.581C78.0202 225.284 78.2342 224.96 78.4523 224.596C78.4544 224.594 78.4565 224.587 78.4585 224.584C78.4839 224.54 78.512 224.484 78.5429 224.41C78.5552 224.382 78.569 224.341 78.582 224.308C78.6039 224.251 78.6259 224.197 78.6506 224.127C78.6671 224.081 78.6856 224.022 78.7027 223.97C78.726 223.899 78.7494 223.833 78.7748 223.752C78.7933 223.693 78.8139 223.622 78.8337 223.558C78.8605 223.471 78.8859 223.386 78.914 223.29C78.9346 223.219 78.9572 223.139 78.9785 223.063C79.008 222.96 79.0368 222.859 79.0677 222.748C79.0917 222.66 79.1171 222.565 79.1418 222.473C79.1719 222.362 79.2014 222.254 79.2323 222.136C79.2584 222.036 79.2858 221.929 79.3133 221.826C79.3462 221.699 79.3784 221.575 79.412 221.443C79.4388 221.337 79.4669 221.225 79.4951 221.116C79.5294 220.979 79.5637 220.845 79.5986 220.703C79.6288 220.581 79.6604 220.453 79.6912 220.327C79.7262 220.183 79.7619 220.041 79.7983 219.891C79.8291 219.764 79.8607 219.632 79.8922 219.501C79.9293 219.346 79.9663 219.193 80.0041 219.034C80.037 218.896 80.0699 218.754 80.1035 218.613C80.1413 218.454 80.1783 218.295 80.2167 218.132C80.2517 217.983 80.2867 217.832 80.3217 217.679C80.3601 217.514 80.3985 217.349 80.4376 217.181C80.4493 217.131 80.4603 217.084 80.4712 217.034C80.4932 216.939 80.5151 216.84 80.5371 216.745C80.5796 216.56 80.6222 216.375 80.6647 216.187C80.6976 216.042 80.7305 215.896 80.7635 215.75C80.806 215.56 80.8492 215.371 80.8924 215.179C80.9267 215.027 80.9604 214.875 80.9946 214.722C81.0365 214.533 81.079 214.345 81.1209 214.155C81.1579 213.989 81.195 213.822 81.232 213.654C81.2718 213.474 81.3116 213.294 81.3514 213.112C81.3898 212.938 81.4275 212.764 81.4659 212.59C81.505 212.41 81.5448 212.23 81.5839 212.049C81.6018 211.966 81.6196 211.884 81.6381 211.801C81.6594 211.705 81.68 211.608 81.7005 211.512C81.739 211.334 81.7774 211.158 81.8158 210.98C81.8535 210.804 81.8919 210.627 81.9297 210.451C81.9688 210.267 82.0086 210.084 82.0477 209.901C82.0854 209.724 82.1231 209.547 82.1608 209.371C82.1979 209.196 82.2343 209.023 82.2713 208.851C82.3111 208.662 82.3509 208.474 82.3907 208.286C82.4256 208.119 82.4606 207.954 82.4956 207.789C82.532 207.614 82.5683 207.44 82.6047 207.267C82.6424 207.086 82.6802 206.907 82.7172 206.727C82.7529 206.554 82.7885 206.382 82.8242 206.211C82.8571 206.053 82.8887 205.897 82.9209 205.742C82.9449 205.625 82.9696 205.506 82.993 205.391C83.0067 205.324 83.0197 205.259 83.0334 205.192C83.065 205.039 83.0952 204.889 83.1261 204.738C83.161 204.566 83.196 204.394 83.2303 204.226C83.2605 204.075 83.2907 203.928 83.3202 203.78C83.3559 203.605 83.3908 203.429 83.4251 203.258C83.4492 203.136 83.4732 203.018 83.4965 202.899C83.5226 202.766 83.55 202.631 83.5761 202.501C83.5864 202.45 83.5953 202.402 83.6056 202.352C83.6289 202.234 83.6515 202.12 83.6742 202.004C83.7071 201.836 83.74 201.668 83.7723 201.506C83.7949 201.389 83.8169 201.277 83.8388 201.162C83.869 201.006 83.8992 200.85 83.928 200.7C83.9479 200.598 83.9657 200.501 83.9849 200.402C84.0144 200.247 84.0446 200.091 84.072 199.944C84.0871 199.862 84.1015 199.786 84.1159 199.708C84.1441 199.557 84.1722 199.406 84.1983 199.266C84.2127 199.188 84.2257 199.117 84.2387 199.042C84.2628 198.908 84.2875 198.775 84.3094 198.652C84.3108 198.644 84.3128 198.633 84.3142 198.625C84.3437 198.458 84.3725 198.297 84.3979 198.149C84.5152 197.464 84.6764 195.952 84.8685 193.83C84.9405 193.034 85.0174 192.153 85.0976 191.198C85.3919 187.694 85.7363 183.193 86.0971 178.258C86.13 177.81 86.163 177.358 86.1959 176.902C87.5508 158.235 89.0929 134.267 89.0929 134.267C89.0929 134.267 89.1484 133.783 88.5811 133.149Z" fill="black"/>
<path d="M54.6289 196.983C54.6289 196.983 53.7838 214.658 53.8771 219.556C53.9704 224.455 54.0897 226.283 56.5202 226.716C58.9507 227.148 68.3194 228.096 70.9482 227.145C73.5776 226.193 74.3782 225.361 75.2521 223.908C76.1254 222.455 80.2593 202.943 81.1963 197.462C82.1341 191.98 85.8906 133.581 85.8906 133.581C85.8906 133.581 86.0361 132.338 83.5363 131.232C81.4495 130.308 71.3804 129.869 68.1136 129.75C66.5132 129.692 65.0589 130.73 64.6507 132.279C64.6445 132.303 64.6377 132.328 64.6315 132.353C64.0045 134.871 54.6289 196.983 54.6289 196.983Z" fill="#6B84AD"/>
<mask id="mask0_28_8286" style="mask-type:luminance" maskUnits="userSpaceOnUse" x="53" y="129" width="33" height="99">
<path d="M54.6289 196.983C54.6289 196.983 53.7838 214.658 53.8771 219.556C53.9704 224.455 54.0897 226.283 56.5202 226.716C58.9507 227.148 68.3194 228.096 70.9482 227.145C73.5776 226.193 74.3782 225.361 75.2521 223.908C76.1254 222.455 80.2593 202.943 81.1963 197.462C82.1341 191.98 85.8906 133.581 85.8906 133.581C85.8906 133.581 86.0361 132.338 83.5363 131.232C81.4495 130.308 71.3804 129.869 68.1136 129.75C66.5132 129.692 65.0589 130.73 64.6507 132.279C64.6445 132.303 64.6377 132.328 64.6315 132.353C64.0045 134.871 54.6289 196.983 54.6289 196.983Z" fill="white"/>
</mask>
<g mask="url(#mask0_28_8286)">
<path opacity="0.5" d="M69.5426 227.431C70.1106 227.366 70.5928 227.273 70.9482 227.144C73.5776 226.193 74.3782 225.361 75.2515 223.908C76.1247 222.455 80.2586 202.943 81.1963 197.461C82.1341 191.979 85.8906 133.58 85.8906 133.58C85.8906 133.58 86.0361 132.338 83.5363 131.231C83.3483 131.148 83.0931 131.069 82.7865 130.993C82.2466 144.541 80.4102 160.63 77.1963 179.737C74.1545 197.825 70.7444 219.676 69.5426 227.431Z" fill="black"/>
</g>
<path d="M54.6289 196.983C54.6289 196.983 53.7838 214.658 53.8771 219.556C53.9704 224.455 54.0897 226.283 56.5202 226.716C58.9507 227.148 68.3194 228.096 70.9482 227.145C73.5776 226.193 74.3782 225.361 75.2521 223.908C76.1254 222.455 80.2593 202.943 81.1963 197.462C82.1341 191.98 85.8906 133.581 85.8906 133.581C85.8906 133.581 86.0361 132.338 83.5363 131.232C81.4495 130.308 71.3804 129.869 68.1136 129.75C66.5132 129.692 65.0589 130.73 64.6507 132.279C64.6445 132.303 64.6377 132.328 64.6315 132.353C64.0045 134.871 54.6289 196.983 54.6289 196.983Z" stroke="#263238" stroke-miterlimit="10" stroke-linecap="round" stroke-linejoin="round"/>
<path d="M73.7916 199.039C70.8631 199.066 58.2476 197.702 56.2966 197.289C55.6476 197.152 55.0975 196.997 54.6488 196.851C54.6365 196.931 54.6289 196.983 54.6289 196.983C54.6289 196.983 53.7838 214.658 53.8771 219.556C53.9704 224.455 54.0897 226.283 56.5202 226.716C58.9507 227.148 68.3194 228.096 70.9482 227.145C73.5776 226.193 74.3782 225.361 75.2515 223.908C76.1014 222.494 80.0377 203.985 81.1126 197.937C78.6396 199.218 76.2036 199.016 73.7916 199.039Z" fill="#263238"/>
<mask id="mask1_28_8286" style="mask-type:luminance" maskUnits="userSpaceOnUse" x="53" y="196" width="29" height="32">
<path d="M73.7916 199.039C70.8631 199.066 58.2476 197.702 56.2966 197.289C55.6476 197.152 55.0975 196.997 54.6488 196.851C54.6365 196.931 54.6289 196.983 54.6289 196.983C54.6289 196.983 53.7838 214.658 53.8771 219.556C53.9704 224.455 54.0897 226.283 56.5202 226.716C58.9507 227.148 68.3194 228.096 70.9482 227.145C73.5776 226.193 74.3782 225.361 75.2515 223.908C76.1014 222.494 80.0377 203.985 81.1126 197.937C78.6396 199.218 76.2036 199.016 73.7916 199.039Z" fill="white"/>
</mask>
<g mask="url(#mask1_28_8286)">
<path opacity="0.5" d="M69.5426 227.431C70.1106 227.366 70.5928 227.273 70.9482 227.144C73.5776 226.193 74.3782 225.361 75.2515 223.908C76.1247 222.455 80.2586 202.943 81.1963 197.461C82.1341 191.979 85.8906 133.58 85.8906 133.58C85.8906 133.58 86.0361 132.338 83.5363 131.231C83.3483 131.148 83.0931 131.069 82.7865 130.993C82.2466 144.541 80.4102 160.63 77.1963 179.737C74.1545 197.825 70.7444 219.676 69.5426 227.431Z" fill="black"/>
</g>
<mask id="mask2_28_8286" style="mask-type:luminance" maskUnits="userSpaceOnUse" x="53" y="196" width="29" height="32">
<path d="M73.7916 199.039C70.8631 199.066 58.2476 197.702 56.2966 197.289C55.6476 197.152 55.0975 196.997 54.6488 196.851C54.6365 196.931 54.6289 196.983 54.6289 196.983C54.6289 196.983 53.7838 214.658 53.8771 219.556C53.9704 224.455 54.0897 226.283 56.5202 226.716C58.9507 227.148 68.3194 228.096 70.9482 227.145C73.5776 226.193 74.3782 225.361 75.2515 223.908C76.1014 222.494 80.0377 203.985 81.1126 197.937C78.6396 199.218 76.2036 199.016 73.7916 199.039Z" fill="white"/>
</mask>
<g mask="url(#mask2_28_8286)">
<path opacity="0.26" d="M73.8225 200.671C76.5631 200.575 78.4544 200.038 79.5197 199.792" stroke="white" stroke-miterlimit="10" stroke-linecap="round" stroke-linejoin="round"/>
</g>
<mask id="mask3_28_8286" style="mask-type:luminance" maskUnits="userSpaceOnUse" x="53" y="196" width="29" height="32">
<path d="M73.7916 199.039C70.8631 199.066 58.2476 197.702 56.2966 197.289C55.6476 197.152 55.0975 196.997 54.6488 196.851C54.6365 196.931 54.6289 196.983 54.6289 196.983C54.6289 196.983 53.7838 214.658 53.8771 219.556C53.9704 224.455 54.0897 226.283 56.5202 226.716C58.9507 227.148 68.3194 228.096 70.9482 227.145C73.5776 226.193 74.3782 225.361 75.2515 223.908C76.1014 222.494 80.0377 203.985 81.1126 197.937C78.6396 199.218 76.2036 199.016 73.7916 199.039Z" fill="white"/>
</mask>
<g mask="url(#mask3_28_8286)">
<path d="M55.625 198.647C55.625 198.647 71.1114 200.767 73.8225 200.671" stroke="white" stroke-miterlimit="10" stroke-linecap="round" stroke-linejoin="round"/>
</g>
<path d="M73.7916 199.039C70.8631 199.066 58.2476 197.702 56.2966 197.289C55.6476 197.152 55.0975 196.997 54.6488 196.851C54.6365 196.931 54.6289 196.983 54.6289 196.983C54.6289 196.983 53.7838 214.658 53.8771 219.556C53.9704 224.455 54.0897 226.283 56.5202 226.716C58.9507 227.148 68.3194 228.096 70.9482 227.145C73.5776 226.193 74.3782 225.361 75.2515 223.908C76.1014 222.494 80.0377 203.985 81.1126 197.937C78.6396 199.218 76.2036 199.016 73.7916 199.039Z" stroke="#263238" stroke-miterlimit="10" stroke-linecap="round" stroke-linejoin="round"/>
<path d="M275.546 126.577C289.965 119.067 295.566 101.291 288.057 86.8713C280.547 72.4522 262.77 66.8508 248.351 74.3603C233.932 81.8699 228.331 99.6466 235.84 114.066C243.35 128.485 261.126 134.086 275.546 126.577Z" fill="#263238" stroke="#263238" stroke-miterlimit="10" stroke-linecap="round" stroke-linejoin="round"/>
<path d="M288.979 101.204C290.987 85.0717 279.536 70.3658 263.403 68.358C247.27 66.3501 232.565 77.8006 230.557 93.9334C228.549 110.066 239.999 124.772 256.132 126.78C272.265 128.788 286.971 117.337 288.979 101.204Z" fill="white" stroke="#263238" stroke-miterlimit="10" stroke-linecap="round" stroke-linejoin="round"/>
<path d="M285.919 101.839C288.293 87.39 278.504 73.7529 264.055 71.3794C249.606 69.0059 235.969 78.7949 233.595 93.2437C231.222 107.693 241.011 121.33 255.46 123.703C269.908 126.077 283.546 116.288 285.919 101.839Z" fill="#263238" stroke="#263238" stroke-miterlimit="10" stroke-linecap="round" stroke-linejoin="round"/>
<path d="M256.655 77.6223C256.655 77.6223 253.729 70.3089 248.61 65.1893C243.49 60.0696 222.647 56.7789 222.647 56.7789C222.647 56.7789 227.035 60.8016 231.788 67.3838C236.542 73.9659 252.267 88.9592 252.267 88.9592C252.267 88.9592 244.588 82.377 237.64 81.6457C230.692 80.9144 213.14 84.5715 212.042 84.5715C210.945 84.5715 218.624 87.4966 224.109 90.0568C229.595 92.6162 250.804 94.8107 250.804 94.8107C250.804 94.8107 241.662 97.3702 235.445 99.5647C229.228 101.759 223.377 117.849 223.377 117.849C223.377 117.849 231.422 110.535 238.371 108.707C245.318 106.877 255.192 103.586 255.192 103.586C255.192 103.586 248.975 110.534 247.513 115.288C246.05 120.042 247.147 131.012 247.147 131.012C247.147 131.012 250.439 120.773 254.461 116.751C258.483 112.728 262.871 105.781 262.871 105.781C262.871 105.781 265.431 109.803 268.356 116.02C271.281 122.236 273.11 131.379 273.11 131.379C273.11 131.379 277.864 121.139 277.499 116.02C277.133 110.9 271.648 101.759 271.648 101.759C271.648 101.759 275.305 99.1991 280.79 101.393C286.275 103.587 295.783 112.729 295.783 112.729C295.783 112.729 293.589 100.662 289.932 95.9077C286.275 91.1537 270.552 89.6911 270.552 89.6911C270.552 89.6911 279.328 84.5715 284.813 83.4746C290.298 82.3777 297.611 84.9371 297.611 84.9371C297.611 84.9371 289.201 73.2354 282.618 72.5041C276.036 71.7728 266.163 82.012 266.163 82.012C266.163 82.012 268.356 71.0415 269.088 67.3845C269.819 63.7281 268.356 54.5858 268.356 54.5858C268.356 54.5858 264.334 56.7796 259.58 63.7281C254.826 70.6745 256.655 77.6223 256.655 77.6223Z" fill="#6B84AD"/>
<path opacity="0.5" d="M256.655 77.6223C256.655 77.6223 253.729 70.3089 248.61 65.1893C243.49 60.0696 222.647 56.7789 222.647 56.7789C222.647 56.7789 227.035 60.8016 231.788 67.3838C236.542 73.9659 252.267 88.9592 252.267 88.9592C252.267 88.9592 244.588 82.377 237.64 81.6457C230.692 80.9144 213.14 84.5715 212.042 84.5715C210.945 84.5715 218.624 87.4966 224.109 90.0568C229.595 92.6162 250.804 94.8107 250.804 94.8107C250.804 94.8107 241.662 97.3702 235.445 99.5647C229.228 101.759 223.377 117.849 223.377 117.849C223.377 117.849 231.422 110.535 238.371 108.707C245.318 106.877 255.192 103.586 255.192 103.586C255.192 103.586 248.975 110.534 247.513 115.288C246.05 120.042 247.147 131.012 247.147 131.012C247.147 131.012 250.439 120.773 254.461 116.751C258.483 112.728 262.871 105.781 262.871 105.781C262.871 105.781 265.431 109.803 268.356 116.02C271.281 122.236 273.11 131.379 273.11 131.379C273.11 131.379 277.864 121.139 277.499 116.02C277.133 110.9 271.648 101.759 271.648 101.759C271.648 101.759 275.305 99.1991 280.79 101.393C286.275 103.587 295.783 112.729 295.783 112.729C295.783 112.729 293.589 100.662 289.932 95.9077C286.275 91.1537 270.552 89.6911 270.552 89.6911C270.552 89.6911 279.328 84.5715 284.813 83.4746C290.298 82.3777 297.611 84.9371 297.611 84.9371C297.611 84.9371 289.201 73.2354 282.618 72.5041C276.036 71.7728 266.163 82.012 266.163 82.012C266.163 82.012 268.356 71.0415 269.088 67.3845C269.819 63.7281 268.356 54.5858 268.356 54.5858C268.356 54.5858 264.334 56.7796 259.58 63.7281C254.826 70.6745 256.655 77.6223 256.655 77.6223Z" fill="black"/>
<path d="M263.859 66.492C264.113 65.441 264.393 64.3949 264.7 63.3611" stroke="#263238" stroke-width="0.5" stroke-miterlimit="10" stroke-linecap="round" stroke-linejoin="round"/>
<path d="M239.434 66.4892C242.86 68.9883 247.14 72.4272 249.341 75.4285C253.364 80.9137 261.409 92.6155 261.409 92.6155C261.409 92.6155 260.869 81.018 263.265 69.1735" stroke="#263238" stroke-width="0.5" stroke-miterlimit="10" stroke-linecap="round" stroke-linejoin="round"/>
<path d="M234.348 62.9954C234.348 62.9954 235.417 63.6725 237.012 64.7715" stroke="#263238" stroke-width="0.5" stroke-miterlimit="10" stroke-linecap="round" stroke-linejoin="round"/>
<path d="M261.409 92.6155C261.409 92.6155 275.304 78.7199 281.155 77.6223C287.006 76.5254 292.126 80.9137 292.126 80.9137" stroke="#263238" stroke-width="0.5" stroke-miterlimit="10" stroke-linecap="round" stroke-linejoin="round"/>
<path d="M236.571 104.236C233.189 106.392 232.885 107.608 232.885 107.608" stroke="#263238" stroke-width="0.5" stroke-miterlimit="10" stroke-linecap="round" stroke-linejoin="round"/>
<path d="M291.76 105.414C291.76 105.414 289.566 99.929 281.886 97.3695C274.207 94.81 262.14 94.4444 262.14 94.4444C262.14 94.4444 245.218 99.9825 239.031 102.874" stroke="#263238" stroke-width="0.5" stroke-miterlimit="10" stroke-linecap="round" stroke-linejoin="round"/>
<path d="M254.755 92.3562C258.841 93.5444 262.14 94.4444 262.14 94.4444" stroke="#263238" stroke-width="0.5" stroke-miterlimit="10" stroke-linecap="round" stroke-linejoin="round"/>
<path d="M228.994 85.8591C232.969 86.0992 238.082 86.6412 240.931 87.8616C243.251 88.8563 247.824 90.301 252.132 91.5838" stroke="#263238" stroke-width="0.5" stroke-miterlimit="10" stroke-linecap="round" stroke-linejoin="round"/>
<path d="M223.377 85.6677C223.377 85.6677 224.713 85.6677 226.689 85.7452" stroke="#263238" stroke-width="0.5" stroke-miterlimit="10" stroke-linecap="round" stroke-linejoin="round"/>
<path d="M261.409 96.6382C261.409 96.6382 251.169 111.997 250.438 115.653C249.707 119.311 249.707 122.236 249.707 122.236" stroke="#263238" stroke-width="0.5" stroke-miterlimit="10" stroke-linecap="round" stroke-linejoin="round"/>
<path d="M265.96 101.47C267.932 104.015 270.297 107.41 271.282 110.168C273.11 115.288 273.842 120.407 273.842 120.407" stroke="#263238" stroke-width="0.5" stroke-miterlimit="10" stroke-linecap="round" stroke-linejoin="round"/>
<path d="M262.871 97.7352C262.871 97.7352 263.683 98.6373 264.816 100.03" stroke="#263238" stroke-width="0.5" stroke-miterlimit="10" stroke-linecap="round" stroke-linejoin="round"/>
<path d="M252.008 80.7738C252.008 80.7738 250.118 73.127 251.291 65.9823C252.464 58.8376 267.475 44.007 267.475 44.007C267.475 44.007 266.256 49.8338 266.235 57.9533C266.213 66.0728 262.184 87.4225 262.184 87.4225C262.184 87.4225 264.583 77.597 269.8 72.95C275.017 68.303 291.408 61.0355 292.299 60.3955C293.19 59.7555 288.659 66.6113 285.696 71.8894C282.734 77.1682 266.785 91.3211 266.785 91.3211C266.785 91.3211 275.704 88.0681 282.034 86.2241C288.364 84.3801 302.501 94.0369 302.501 94.0369C302.501 94.0369 291.7 92.7884 284.99 95.3561C278.279 97.9238 268.34 101.009 268.34 101.009C268.34 101.009 277.442 103.026 281.403 106.035C285.364 109.043 290.872 118.594 290.872 118.594C290.872 118.594 282.226 112.197 276.612 111.276C270.999 110.355 263.382 107.271 263.382 107.271C263.382 107.271 263.649 112.031 264.899 118.787C266.149 125.543 269.996 134.036 269.996 134.036C269.996 134.036 260.162 128.491 257.473 124.119C254.784 119.748 253.907 109.123 253.907 109.123C253.907 109.123 249.444 109.176 246.268 114.158C243.092 119.14 240.702 132.111 240.702 132.111C240.702 132.111 235.445 121.03 235.643 115.035C235.841 109.04 247.76 98.6805 247.76 98.6805C247.76 98.6805 237.645 99.6409 232.549 101.949C227.454 104.258 223.006 110.602 223.006 110.602C223.006 110.602 223.012 96.1917 227.933 91.7587C232.853 87.3251 246.845 89.8832 246.845 89.8832C246.845 89.8832 238.665 82.2521 235.937 79.7085C233.211 77.1648 229.066 68.8854 229.066 68.8854C229.066 68.8854 233.613 68.3215 241.528 71.1924C249.441 74.0634 252.008 80.7738 252.008 80.7738Z" fill="#6B84AD"/>
<path d="M239.664 75.9341C238.845 75.2289 238.008 74.5415 237.155 73.8816" stroke="#263238" stroke-width="0.5" stroke-miterlimit="10" stroke-linecap="round" stroke-linejoin="round"/>
<path d="M259.503 61.6859C258.178 65.714 256.707 71.0045 256.67 74.7253C256.602 81.527 256.892 95.7245 256.892 95.7245C256.892 95.7245 250.566 85.9901 241.711 77.7657" stroke="#263238" stroke-width="0.5" stroke-miterlimit="10" stroke-linecap="round" stroke-linejoin="round"/>
<path d="M261.596 55.8816C261.596 55.8816 261.122 57.056 260.469 58.878" stroke="#263238" stroke-width="0.5" stroke-miterlimit="10" stroke-linecap="round" stroke-linejoin="round"/>
<path d="M256.892 95.7245C256.892 95.7245 237.499 92.5421 232.107 95.0638C226.715 97.5856 225.116 104.136 225.116 104.136" stroke="#263238" stroke-width="0.5" stroke-miterlimit="10" stroke-linecap="round" stroke-linejoin="round"/>
<path d="M283.846 90.6776C287.85 90.456 288.806 91.2669 288.806 91.2669" stroke="#263238" stroke-width="0.5" stroke-miterlimit="10" stroke-linecap="round" stroke-linejoin="round"/>
<path d="M239.703 123.824C239.703 123.824 238.286 118.089 243.031 111.531C247.776 104.972 257.365 97.6364 257.365 97.6364C257.365 97.6364 274.34 92.265 281.052 91.0055" stroke="#263238" stroke-width="0.5" stroke-miterlimit="10" stroke-linecap="round" stroke-linejoin="round"/>
<path d="M262.145 91.6332C259.519 94.9815 257.364 97.6364 257.364 97.6364" stroke="#263238" stroke-width="0.5" stroke-miterlimit="10" stroke-linecap="round" stroke-linejoin="round"/>
<path d="M279.281 71.3303C276.192 73.8445 272.354 77.2663 270.753 79.919C269.448 82.0799 266.576 85.9215 263.825 89.4764" stroke="#263238" stroke-width="0.5" stroke-miterlimit="10" stroke-linecap="round" stroke-linejoin="round"/>
<path d="M283.731 67.899C283.731 67.899 282.646 68.6783 281.086 69.8932" stroke="#263238" stroke-width="0.5" stroke-miterlimit="10" stroke-linecap="round" stroke-linejoin="round"/>
<path d="M259.238 98.9919C259.238 98.9919 276.514 105.495 279.24 108.039C281.967 110.583 283.674 112.959 283.674 112.959" stroke="#263238" stroke-width="0.5" stroke-miterlimit="10" stroke-linecap="round" stroke-linejoin="round"/>
<path d="M258.359 105.572C258.242 108.789 258.301 112.927 259.11 115.741C260.611 120.967 263.003 125.551 263.003 125.551" stroke="#263238" stroke-width="0.5" stroke-miterlimit="10" stroke-linecap="round" stroke-linejoin="round"/>
<path d="M258.69 100.736C258.69 100.736 258.557 101.943 258.448 103.734" stroke="#263238" stroke-width="0.5" stroke-miterlimit="10" stroke-linecap="round" stroke-linejoin="round"/>
<path opacity="0.3" d="M265.625 249.242C264.307 245.531 264.077 226.062 264.371 212.221L272.073 213.886C273.47 214.188 274.852 213.946 276.005 213.307C276.296 213.146 276.57 212.955 276.828 212.745C277.077 212.544 277.306 212.32 277.518 212.079C278.209 211.292 278.694 210.308 278.86 209.19C278.889 208.997 278.908 208.805 278.917 208.613C278.943 208.041 278.882 207.481 278.744 206.948C278.607 206.415 278.393 205.908 278.112 205.443C277.925 205.133 277.709 204.842 277.466 204.573C276.619 203.632 275.45 202.968 274.1 202.767L264.795 201.385C264.881 200.173 264.974 199.237 265.074 198.66C265.245 197.667 265.309 196.767 265.273 195.942C265.412 195.496 265.615 194.841 265.918 193.866C266.853 190.857 266.141 186.429 263.581 183.912C261.021 181.395 251.939 176.963 249.259 174.637C246.58 172.312 226.672 158.113 223.094 158.953C219.517 159.793 215.297 164.886 211.691 167.702C208.085 170.518 195.144 181.105 195.144 181.105C195.185 180.655 188.477 183.368 186.845 185.996C186.571 186.331 186.433 186.643 186.496 186.91C186.765 188.055 187.576 189.381 189.475 190.192L183.659 189.328C182.967 189.225 182.306 189.544 181.939 190.099C179.877 189.787 175.684 189.329 172.653 190.16C172.653 190.16 177.602 192.578 181.3 193.385C181.493 193.948 181.962 194.401 182.588 194.537L190.304 196.205C190.172 196.622 190.062 197.071 189.986 197.579C189.923 197.992 190.001 198.412 190.16 198.827C190.193 199.09 190.239 199.359 190.305 199.638C191.401 204.304 197.326 209.97 201.652 213.714C205.977 217.457 210.109 223.873 212.676 231.312C215.243 238.751 216.849 245.594 222.554 253.117C223.574 254.462 224.641 255.66 225.717 256.732L278.93 290.325C278.929 290.326 267.562 254.695 265.625 249.242ZM196.225 190.745C196.132 190.882 196.045 191.019 195.97 191.159L194.501 190.941C195.044 190.923 195.622 190.854 196.225 190.745Z" fill="black"/>
<path d="M247.754 308.635L213.785 249.914C213.785 249.914 209.983 223.235 201.883 212.5C193.783 201.765 182.425 193.929 189.014 188.443C195.603 182.957 212.34 172.463 215.78 173.133C219.22 173.802 242.304 185.451 248.826 187.365C255.348 189.28 257.633 192.026 256.661 197.67C255.688 203.314 255.276 242.798 257.212 248.252C259.149 253.705 280.577 292.558 280.577 292.558" fill="white"/>
<mask id="mask4_28_8286" style="mask-type:luminance" maskUnits="userSpaceOnUse" x="187" y="173" width="94" height="136">
<path d="M247.754 308.635L213.785 249.914C213.785 249.914 209.983 223.235 201.883 212.5C193.783 201.765 182.425 193.929 189.014 188.443C195.603 182.957 212.34 172.463 215.78 173.133C219.22 173.802 242.304 185.451 248.826 187.365C255.348 189.28 257.633 192.026 256.661 197.67C255.688 203.314 255.276 242.798 257.212 248.252C259.149 253.705 280.577 292.558 280.577 292.558" fill="white"/>
</mask>
<g mask="url(#mask4_28_8286)">
<path d="M257.212 248.252C255.276 242.799 255.689 203.315 256.661 197.671C257.257 194.212 256.622 191.845 254.546 190.087C254.701 193.178 254.002 196.559 253.043 199.274C251.211 204.466 250.295 208.13 250.295 208.13C250.295 208.13 249.99 226.759 251.211 236.225C252.433 245.692 258.54 262.487 264.343 271.648C268.636 278.427 274.765 284.534 277.664 287.254C271.737 276.428 258.703 252.449 257.212 248.252Z" fill="#6B84AD"/>
</g>
<mask id="mask5_28_8286" style="mask-type:luminance" maskUnits="userSpaceOnUse" x="187" y="173" width="94" height="136">
<path d="M247.754 308.635L213.785 249.914C213.785 249.914 209.983 223.235 201.883 212.5C193.783 201.765 182.425 193.929 189.014 188.443C195.603 182.957 212.34 172.463 215.78 173.133C219.22 173.802 242.304 185.451 248.826 187.365C255.348 189.28 257.633 192.026 256.661 197.67C255.688 203.314 255.276 242.798 257.212 248.252C259.149 253.705 280.577 292.558 280.577 292.558" fill="white"/>
</mask>
<g mask="url(#mask5_28_8286)">
<path opacity="0.5" d="M257.212 248.252C255.276 242.799 255.689 203.315 256.661 197.671C257.257 194.212 256.622 191.845 254.546 190.087C254.701 193.178 254.002 196.559 253.043 199.274C251.211 204.466 250.295 208.13 250.295 208.13C250.295 208.13 249.99 226.759 251.211 236.225C252.433 245.692 258.54 262.487 264.343 271.648C268.636 278.427 274.765 284.534 277.664 287.254C271.737 276.428 258.703 252.449 257.212 248.252Z" fill="white"/>
</g>
<path d="M247.754 308.635L213.785 249.914C213.785 249.914 209.983 223.235 201.883 212.5C193.783 201.765 182.425 193.929 189.014 188.443C195.603 182.957 212.34 172.463 215.78 173.133C219.22 173.802 242.304 185.451 248.826 187.365C255.348 189.28 257.633 192.026 256.661 197.67C255.688 203.314 255.276 242.798 257.212 248.252C259.149 253.705 280.577 292.558 280.577 292.558" stroke="#263238" stroke-miterlimit="10" stroke-linecap="round"/>
<path d="M180.059 189.502C180.059 189.502 187.388 189.502 195.022 184.616C202.657 179.731 200.214 178.814 200.214 178.814C200.214 178.814 204.184 177.592 206.627 176.677C209.069 175.76 212.429 173.317 212.429 173.317C212.429 173.317 222.201 179.73 226.781 181.562C231.362 183.395 233.527 183.87 233.527 183.87L239.913 192.25C239.913 192.25 234.721 194.388 231.057 199.885C227.393 205.382 222.812 212.711 220.675 213.627C218.537 214.543 219.453 215.459 209.987 211.794C200.518 208.13 179.447 194.999 180.059 189.502Z" fill="#6B84AD"/>
<path opacity="0.5" d="M180.059 189.502C180.059 189.502 187.388 189.502 195.022 184.616C202.657 179.731 200.214 178.814 200.214 178.814C200.214 178.814 204.184 177.592 206.627 176.677C209.069 175.76 212.429 173.317 212.429 173.317C212.429 173.317 222.201 179.73 226.781 181.562C231.362 183.395 233.527 183.87 233.527 183.87L239.913 192.25C239.913 192.25 234.721 194.388 231.057 199.885C227.393 205.382 222.812 212.711 220.675 213.627C218.537 214.543 219.453 215.459 209.987 211.794C200.518 208.13 179.447 194.999 180.059 189.502Z" fill="white"/>
<path d="M196.98 192.317C196.98 192.317 204.318 191.415 209.491 181.995C209.491 181.995 215.581 184.574 221.921 182.922" stroke="#263238" stroke-miterlimit="10" stroke-linecap="round"/>
<path d="M216.881 185.512C216.881 185.512 213.336 194.878 220.803 207.276" stroke="#263238" stroke-miterlimit="10" stroke-linecap="round"/>
<path d="M209.041 186.368C209.041 186.368 212.734 190.917 213.336 194.878" stroke="#263238" stroke-miterlimit="10" stroke-linecap="round"/>
<path d="M215.962 211.657C215.962 211.657 222.103 207.754 225.417 203.693C228.73 199.633 230.187 195.352 235.366 193.644" stroke="#263238" stroke-miterlimit="10" stroke-linecap="round"/>
<path d="M209.491 181.995L207.986 180.218" stroke="#263238" stroke-miterlimit="10" stroke-linecap="round"/>
<path d="M174.778 189.324C174.778 189.324 168.403 188.031 164.239 189.172C164.239 189.172 170.358 192.166 174.072 192.608L174.778 189.324Z" fill="#263238" stroke="#263238" stroke-miterlimit="10" stroke-linecap="round"/>
<path d="M265.686 201.778L175.246 188.341C174.352 188.208 173.504 188.773 173.284 189.649L172.842 191.403C172.599 192.367 173.203 193.339 174.174 193.549L263.661 212.897C266.855 213.587 269.968 211.433 270.447 208.201C270.906 205.112 268.775 202.237 265.686 201.778Z" fill="#6B84AD" stroke="#263238" stroke-miterlimit="10" stroke-linecap="round"/>
<path d="M265.686 201.778L252.017 199.747C249.541 201.196 248.193 204.214 248.906 207.249C249.15 208.285 249.611 209.21 250.222 209.99L263.661 212.895C266.855 213.586 269.968 211.432 270.447 208.2C270.906 205.112 268.775 202.237 265.686 201.778Z" fill="#263238" stroke="#263238" stroke-miterlimit="10" stroke-linecap="round"/>
<path d="M229.082 210.218C229.082 210.218 221.305 212.044 217.829 211.219C214.353 210.393 207.25 200.409 202.375 197.123C197.501 193.836 194.528 193.057 189.424 192.286C184.319 191.515 180.796 193.983 181.892 198.649C182.987 203.315 188.912 208.981 193.238 212.725C197.563 216.469 201.695 222.884 204.262 230.323C206.829 237.762 208.436 244.606 214.14 252.128C219.845 259.651 226.97 262.737 229.367 263.16" fill="white"/>
<mask id="mask6_28_8286" style="mask-type:luminance" maskUnits="userSpaceOnUse" x="181" y="192" width="49" height="72">
<path d="M229.082 210.218C229.082 210.218 221.305 212.044 217.829 211.219C214.353 210.393 207.25 200.409 202.375 197.123C197.501 193.836 194.528 193.057 189.424 192.286C184.319 191.515 180.796 193.983 181.892 198.649C182.987 203.315 188.912 208.981 193.238 212.725C197.563 216.469 201.695 222.884 204.262 230.323C206.829 237.762 208.436 244.606 214.14 252.128C219.845 259.651 226.97 262.737 229.367 263.16" fill="white"/>
</mask>
<g mask="url(#mask6_28_8286)">
<path d="M225.223 211.321C225.223 211.321 225.026 211.221 224.675 211.04C222.314 211.386 219.547 211.626 217.829 211.219C214.353 210.393 207.25 200.409 202.375 197.123C197.501 193.836 194.528 193.057 189.424 192.286C188.551 192.154 187.728 192.124 186.962 192.176C188.502 192.551 193.416 193.932 197.927 197.19C203.356 201.112 207.278 211.067 213.312 212.877C219.345 214.686 225.223 211.321 225.223 211.321Z" fill="#6B84AD"/>
</g>
<mask id="mask7_28_8286" style="mask-type:luminance" maskUnits="userSpaceOnUse" x="181" y="192" width="49" height="72">
<path d="M229.082 210.218C229.082 210.218 221.305 212.044 217.829 211.219C214.353 210.393 207.25 200.409 202.375 197.123C197.501 193.836 194.528 193.057 189.424 192.286C184.319 191.515 180.796 193.983 181.892 198.649C182.987 203.315 188.912 208.981 193.238 212.725C197.563 216.469 201.695 222.884 204.262 230.323C206.829 237.762 208.436 244.606 214.14 252.128C219.845 259.651 226.97 262.737 229.367 263.16" fill="white"/>
</mask>
<g mask="url(#mask7_28_8286)">
<path opacity="0.5" d="M225.223 211.321C225.223 211.321 225.026 211.221 224.675 211.04C222.314 211.386 219.547 211.626 217.829 211.219C214.353 210.393 207.25 200.409 202.375 197.123C197.501 193.836 194.528 193.057 189.424 192.286C188.551 192.154 187.728 192.124 186.962 192.176C188.502 192.551 193.416 193.932 197.927 197.19C203.356 201.112 207.278 211.067 213.312 212.877C219.345 214.686 225.223 211.321 225.223 211.321Z" fill="white"/>
</g>
<path d="M229.082 210.218C229.082 210.218 221.305 212.044 217.829 211.219C214.353 210.393 207.25 200.409 202.375 197.123C197.501 193.836 194.528 193.057 189.424 192.286C184.319 191.515 180.796 193.983 181.892 198.649C182.987 203.315 188.912 208.981 193.238 212.725C197.563 216.469 201.695 222.884 204.262 230.323C206.829 237.762 208.436 244.606 214.14 252.128C219.845 259.651 226.97 262.737 229.367 263.16" stroke="#263238" stroke-miterlimit="10" stroke-linecap="round"/>
<path d="M185.796 202C185.796 202 186.164 197.975 191.683 194.217C191.683 194.217 187.998 191.8 185.472 192.229C182.947 192.658 181.959 194.039 181.573 196.59C181.186 199.143 185.796 202 185.796 202Z" fill="white" stroke="#263238" stroke-miterlimit="10" stroke-linecap="round"/>
<path d="M189.418 206.275C189.752 206.62 190.21 206.994 190.834 207.381" stroke="#263238" stroke-miterlimit="10" stroke-linecap="round"/>
<path d="M193.428 196.761C193.428 196.761 187.572 199.778 188.511 204.48" stroke="#263238" stroke-miterlimit="10" stroke-linecap="round"/>
<path d="M256.571 195.887C256.571 195.887 256.571 195.887 257.505 192.877C258.44 189.868 257.728 185.44 255.168 182.923C252.608 180.406 243.526 175.973 240.846 173.649C238.167 171.324 218.258 157.125 214.681 157.965C211.103 158.804 206.884 163.898 203.278 166.714C199.672 169.53 186.731 180.117 186.731 180.117C186.731 180.117 177.644 184.055 178.082 185.922C178.521 187.788 180.386 190.14 186.085 189.951C191.784 189.761 201.283 184.085 202.729 183.253C204.176 182.422 213.135 176.543 213.135 176.543C213.135 176.543 216.801 180.278 221.036 182.238C225.271 184.198 225.811 184.4 225.811 184.4C225.811 184.4 226.916 188.407 230.025 190.467" fill="white"/>
<mask id="mask8_28_8286" style="mask-type:luminance" maskUnits="userSpaceOnUse" x="178" y="157" width="80" height="39">
<path d="M256.571 195.887C256.571 195.887 256.571 195.887 257.505 192.877C258.44 189.868 257.728 185.44 255.168 182.923C252.608 180.406 243.526 175.973 240.846 173.649C238.167 171.324 218.258 157.125 214.681 157.965C211.103 158.804 206.884 163.898 203.278 166.714C199.672 169.53 186.731 180.117 186.731 180.117C186.731 180.117 177.644 184.055 178.082 185.922C178.521 187.788 180.386 190.14 186.085 189.951C191.784 189.761 201.283 184.085 202.729 183.253C204.176 182.422 213.135 176.543 213.135 176.543C213.135 176.543 216.801 180.278 221.036 182.238C225.271 184.198 225.811 184.4 225.811 184.4C225.811 184.4 226.916 188.407 230.025 190.467" fill="white"/>
</mask>
<g mask="url(#mask8_28_8286)">
<path d="M251.516 183.089C254.809 185.676 255.018 190.794 254.105 195.384L256.57 195.887C256.57 195.887 256.57 195.887 257.505 192.878C258.439 189.868 257.727 185.44 255.167 182.923C252.607 180.406 243.525 175.974 240.846 173.649C240.147 173.042 238.268 171.623 235.819 169.878L235.331 169.959C235.331 169.959 247.241 179.73 251.516 183.089Z" fill="#6B84AD"/>
</g>
<mask id="mask9_28_8286" style="mask-type:luminance" maskUnits="userSpaceOnUse" x="178" y="157" width="80" height="39">
<path d="M256.571 195.887C256.571 195.887 256.571 195.887 257.505 192.877C258.44 189.868 257.728 185.44 255.168 182.923C252.608 180.406 243.526 175.973 240.846 173.649C238.167 171.324 218.258 157.125 214.681 157.965C211.103 158.804 206.884 163.898 203.278 166.714C199.672 169.53 186.731 180.117 186.731 180.117C186.731 180.117 177.644 184.055 178.082 185.922C178.521 187.788 180.386 190.14 186.085 189.951C191.784 189.761 201.283 184.085 202.729 183.253C204.176 182.422 213.135 176.543 213.135 176.543C213.135 176.543 216.801 180.278 221.036 182.238C225.271 184.198 225.811 184.4 225.811 184.4C225.811 184.4 226.916 188.407 230.025 190.467" fill="white"/>
</mask>
<g mask="url(#mask9_28_8286)">
<path opacity="0.5" d="M251.516 183.089C254.809 185.676 255.018 190.794 254.105 195.384L256.57 195.887C256.57 195.887 256.57 195.887 257.505 192.878C258.439 189.868 257.727 185.44 255.167 182.923C252.607 180.406 243.525 175.974 240.846 173.649C240.147 173.042 238.268 171.623 235.819 169.878L235.331 169.959C235.331 169.959 247.241 179.73 251.516 183.089Z" fill="white"/>
</g>
<mask id="mask10_28_8286" style="mask-type:luminance" maskUnits="userSpaceOnUse" x="178" y="157" width="80" height="39">
<path d="M256.571 195.887C256.571 195.887 256.571 195.887 257.505 192.877C258.44 189.868 257.728 185.44 255.168 182.923C252.608 180.406 243.526 175.973 240.846 173.649C238.167 171.324 218.258 157.125 214.681 157.965C211.103 158.804 206.884 163.898 203.278 166.714C199.672 169.53 186.731 180.117 186.731 180.117C186.731 180.117 177.644 184.055 178.082 185.922C178.521 187.788 180.386 190.14 186.085 189.951C191.784 189.761 201.283 184.085 202.729 183.253C204.176 182.422 213.135 176.543 213.135 176.543C213.135 176.543 216.801 180.278 221.036 182.238C225.271 184.198 225.811 184.4 225.811 184.4C225.811 184.4 226.916 188.407 230.025 190.467" fill="white"/>
</mask>
<g mask="url(#mask10_28_8286)">
<path d="M180.059 189.502C180.059 189.502 187.388 189.502 195.022 184.616C202.657 179.731 200.214 178.814 200.214 178.814C200.214 178.814 204.184 177.592 206.627 176.677C209.069 175.76 212.429 173.317 212.429 173.317C212.429 173.317 222.201 179.73 226.781 181.562C231.362 183.395 233.527 183.87 233.527 183.87L239.913 192.25C239.913 192.25 234.721 194.388 231.057 199.885C227.393 205.382 222.812 212.711 220.675 213.627C218.537 214.543 219.453 215.459 209.987 211.794C200.518 208.13 179.447 194.999 180.059 189.502Z" fill="#6B84AD"/>
</g>
<mask id="mask11_28_8286" style="mask-type:luminance" maskUnits="userSpaceOnUse" x="178" y="157" width="80" height="39">
<path d="M256.571 195.887C256.571 195.887 256.571 195.887 257.505 192.877C258.44 189.868 257.728 185.44 255.168 182.923C252.608 180.406 243.526 175.973 240.846 173.649C238.167 171.324 218.258 157.125 214.681 157.965C211.103 158.804 206.884 163.898 203.278 166.714C199.672 169.53 186.731 180.117 186.731 180.117C186.731 180.117 177.644 184.055 178.082 185.922C178.521 187.788 180.386 190.14 186.085 189.951C191.784 189.761 201.283 184.085 202.729 183.253C204.176 182.422 213.135 176.543 213.135 176.543C213.135 176.543 216.801 180.278 221.036 182.238C225.271 184.198 225.811 184.4 225.811 184.4C225.811 184.4 226.916 188.407 230.025 190.467" fill="white"/>
</mask>
<g mask="url(#mask11_28_8286)">
<path opacity="0.5" d="M180.059 189.502C180.059 189.502 187.388 189.502 195.022 184.616C202.657 179.731 200.214 178.814 200.214 178.814C200.214 178.814 204.184 177.592 206.627 176.677C209.069 175.76 212.429 173.317 212.429 173.317C212.429 173.317 222.201 179.73 226.781 181.562C231.362 183.395 233.527 183.87 233.527 183.87L239.913 192.25C239.913 192.25 234.721 194.388 231.057 199.885C227.393 205.382 222.812 212.711 220.675 213.627C218.537 214.543 219.453 215.459 209.987 211.794C200.518 208.13 179.447 194.999 180.059 189.502Z" fill="white"/>
</g>
<path d="M256.571 195.887C256.571 195.887 256.571 195.887 257.505 192.877C258.44 189.868 257.728 185.44 255.168 182.923C252.608 180.406 243.526 175.973 240.846 173.649C238.167 171.324 218.258 157.125 214.681 157.965C211.103 158.804 206.884 163.898 203.278 166.714C199.672 169.53 186.731 180.117 186.731 180.117C186.731 180.117 177.644 184.055 178.082 185.922C178.521 187.788 180.386 190.14 186.085 189.951C191.784 189.761 201.283 184.085 202.729 183.253C204.176 182.422 213.135 176.543 213.135 176.543C213.135 176.543 216.801 180.278 221.036 182.238C225.271 184.198 225.811 184.4 225.811 184.4C225.811 184.4 226.916 188.407 230.025 190.467" stroke="#263238" stroke-miterlimit="10" stroke-linecap="round"/>
<path d="M178.083 185.922C178.083 185.922 179.007 186.362 180.956 185.576C182.905 184.791 186.685 180.62 186.731 180.118C186.777 179.614 178.395 183.059 178.083 185.922Z" fill="white" stroke="#263238" stroke-miterlimit="10" stroke-linecap="round"/>
<path d="M212.769 169.889C212.853 169.49 212.959 169.085 213.093 168.676" stroke="#263238" stroke-miterlimit="10" stroke-linecap="round"/>
<path d="M213.135 176.544C213.135 176.544 212.323 174.321 212.549 171.44" stroke="#263238" stroke-miterlimit="10" stroke-linecap="round"/>
</svg>
