<svg width="36" height="36" viewBox="0 0 36 36" fill="none" xmlns="http://www.w3.org/2000/svg">
<path d="M12 17C12 14.1716 12 12.7574 12.8787 11.8787C13.7574 11 15.1716 11 18 11H21C23.8284 11 25.2426 11 26.1213 11.8787C27 12.7574 27 14.1716 27 17V22C27 24.8284 27 26.2426 26.1213 27.1213C25.2426 28 23.8284 28 21 28H18C15.1716 28 13.7574 28 12.8787 27.1213C12 26.2426 12 24.8284 12 22V17Z" stroke="#9C859E" stroke-width="1.5"/>
<path d="M12 25C10.3431 25 9 23.6569 9 22V16C9 12.2288 9 10.3431 10.1716 9.17157C11.3431 8 13.2288 8 17 8H21C22.6569 8 24 9.34315 24 11" stroke="#9C859E" stroke-width="1.5"/>
</svg>
