<svg width="36" height="36" viewBox="0 0 36 36" fill="none" xmlns="http://www.w3.org/2000/svg">
<path d="M9.84453 13.9223C8.71849 12.7962 8.71849 10.9706 9.84453 9.84453C10.9706 8.71849 12.7962 8.71849 13.9223 9.84453L26.1555 22.0777C27.2815 23.2038 27.2815 25.0294 26.1555 26.1555C25.0294 27.2815 23.2038 27.2815 22.0777 26.1555L9.84453 13.9223Z" stroke="#9C859E" stroke-width="1.5"/>
<path d="M12 16L16 12" stroke="#9C859E" stroke-width="1.5" stroke-linecap="round"/>
<path d="M22.1 8.30719C22.261 7.8976 22.8385 7.8976 22.9994 8.30719L23.4298 9.40247C23.479 9.52752 23.5776 9.62651 23.7022 9.67583L24.7934 10.1078C25.2015 10.2693 25.2015 10.849 24.7934 11.0105L23.7022 11.4425C23.5776 11.4918 23.479 11.5908 23.4298 11.7159L22.9995 12.8112C22.8385 13.2207 22.261 13.2207 22.1 12.8112L21.6697 11.7159C21.6205 11.5908 21.5219 11.4918 21.3973 11.4425L20.3061 11.0105C19.898 10.849 19.898 10.2693 20.3061 10.1078L21.3973 9.67583C21.5219 9.62651 21.6205 9.52752 21.6697 9.40247L22.1 8.30719Z" stroke="#9C859E"/>
<path d="M25.9672 15.1295C26.1281 14.7199 26.7057 14.7199 26.8666 15.1295L27.0235 15.5288C27.0727 15.6539 27.1713 15.7528 27.2959 15.8022L27.6937 15.9597C28.1018 16.1212 28.1018 16.7009 27.6937 16.8624L27.2959 17.0199C27.1713 17.0692 27.0727 17.1682 27.0235 17.2932L26.8666 17.6926C26.7057 18.1022 26.1281 18.1022 25.9672 17.6926L25.8103 17.2932C25.7611 17.1682 25.6625 17.0692 25.5379 17.0199L25.14 16.8624C24.732 16.7009 24.732 16.1212 25.14 15.9597L25.5379 15.8022C25.6625 15.7528 25.7611 15.6539 25.8103 15.5288L25.9672 15.1295Z" stroke="#9C859E"/>
<path d="M11.1332 21.3072C11.2941 20.8976 11.8717 20.8976 12.0326 21.3072L12.1895 21.7065C12.2387 21.8316 12.3373 21.9306 12.4619 21.9799L12.8598 22.1374C13.2678 22.2989 13.2678 22.8786 12.8598 23.0401L12.4619 23.1976C12.3373 23.2469 12.2387 23.3459 12.1895 23.471L12.0326 23.8703C11.8717 24.2799 11.2941 24.2799 11.1332 23.8703L10.9763 23.471C10.9271 23.3459 10.8285 23.2469 10.7039 23.1976L10.3061 23.0401C9.89798 22.8786 9.89798 22.2989 10.3061 22.1374L10.7039 21.9799C10.8285 21.9306 10.9271 21.8316 10.9763 21.7065L11.1332 21.3072Z" stroke="#9C859E"/>
</svg>
