<svg width="36" height="36" viewBox="0 0 36 36" fill="none" xmlns="http://www.w3.org/2000/svg">
<path d="M11.6695 15.9144L14.7317 11.7713C16.711 9.09327 17.7007 7.75425 18.6241 8.03721C19.5474 8.32018 19.5474 9.96249 19.5474 13.2471V13.5568C19.5474 14.7415 19.5474 15.3339 19.926 15.7054L19.946 15.7247C20.3327 16.0884 20.9492 16.0884 22.1822 16.0884C24.4011 16.0884 25.5106 16.0884 25.8855 16.7613C25.8917 16.7724 25.8977 16.7837 25.9036 16.795C26.2576 17.4784 25.6152 18.3475 24.3304 20.0857L21.2683 24.2287C19.2889 26.9067 18.2992 28.2458 17.3758 27.9628C16.4525 27.6798 16.4525 26.0375 16.4525 22.7528L16.4526 22.4433C16.4526 21.2585 16.4526 20.6662 16.074 20.2946L16.054 20.2754C15.6673 19.9117 15.0508 19.9117 13.8178 19.9117C11.5989 19.9117 10.4894 19.9117 10.1145 19.2387C10.1083 19.2276 10.1023 19.2164 10.0964 19.205C9.74244 18.5217 10.3848 17.6526 11.6695 15.9144Z" stroke="#9C859E" stroke-width="1.5"/>
</svg>
