<svg width="36" height="36" viewBox="0 0 36 36" fill="none" xmlns="http://www.w3.org/2000/svg">
<circle cx="18" cy="18" r="3" stroke="#9C859E" stroke-width="1.5"/>
<path d="M19.7654 8.15224C19.3978 8 18.9319 8 18 8C17.0681 8 16.6022 8 16.2346 8.15224C15.7446 8.35523 15.3552 8.74458 15.1522 9.23463C15.0596 9.45834 15.0233 9.7185 15.0091 10.098C14.9883 10.6557 14.7023 11.1719 14.2189 11.4509C13.7356 11.73 13.1456 11.7195 12.6522 11.4588C12.3164 11.2813 12.073 11.1826 11.8329 11.151C11.307 11.0818 10.7752 11.2243 10.3544 11.5472C10.0387 11.7894 9.80577 12.1929 9.33983 12.9999C8.87389 13.807 8.64092 14.2105 8.58899 14.6049C8.51976 15.1308 8.66227 15.6627 8.98518 16.0835C9.13256 16.2756 9.3397 16.437 9.66119 16.639C10.1338 16.936 10.4379 17.4419 10.4379 18C10.4378 18.5581 10.1337 19.0639 9.66118 19.3608C9.33965 19.5629 9.13248 19.7244 8.98508 19.9165C8.66217 20.3373 8.51966 20.8691 8.5889 21.395C8.64082 21.7894 8.87379 22.193 9.33973 23C9.80568 23.807 10.0386 24.2106 10.3543 24.4527C10.7751 24.7756 11.3069 24.9181 11.8328 24.8489C12.0729 24.8173 12.3163 24.7186 12.652 24.5412C13.1455 24.2804 13.7356 24.27 14.2189 24.549C14.7022 24.8281 14.9883 25.3443 15.0091 25.9021C15.0233 26.2815 15.0596 26.5417 15.1522 26.7654C15.3552 27.2554 15.7446 27.6448 16.2346 27.8478C16.6022 28 17.0681 28 18 28C18.9319 28 19.3978 28 19.7654 27.8478C20.2554 27.6448 20.6448 27.2554 20.8477 26.7654C20.9404 26.5417 20.9767 26.2815 20.9909 25.902C21.0117 25.3443 21.2977 24.8281 21.781 24.549C22.2643 24.2699 22.8544 24.2804 23.3479 24.5412C23.6836 24.7186 23.927 24.8172 24.167 24.8488C24.6929 24.9181 25.2248 24.7756 25.6456 24.4527C25.9612 24.2105 26.1942 23.807 26.6601 22.9999C27.1261 22.1929 27.3591 21.7894 27.411 21.395C27.4802 20.8691 27.3377 20.3372 27.0148 19.9164C26.8674 19.7243 26.6602 19.5628 26.3387 19.3608C25.8662 19.0639 25.5621 18.558 25.5621 17.9999C25.5621 17.4418 25.8662 16.9361 26.3387 16.6392C26.6603 16.4371 26.8675 16.2757 27.0149 16.0835C27.3378 15.6627 27.4803 15.1309 27.4111 14.605C27.3592 14.2106 27.1262 13.807 26.6602 13C26.1943 12.193 25.9613 11.7894 25.6457 11.5473C25.2249 11.2244 24.693 11.0818 24.1671 11.1511C23.9271 11.1827 23.6837 11.2814 23.3479 11.4588C22.8545 11.7196 22.2644 11.73 21.7811 11.451C21.2977 11.1719 21.0117 10.6557 20.9909 10.0979C20.9767 9.71848 20.9404 9.45833 20.8477 9.23463C20.6448 8.74458 20.2554 8.35523 19.7654 8.15224Z" stroke="#9C859E" stroke-width="1.5"/>
</svg>
