<svg width="103" height="36" viewBox="0 0 103 36" fill="none" xmlns="http://www.w3.org/2000/svg">
<rect width="103" height="36" rx="8" fill="#6B84AD"/>
<path d="M15 16C15 12.2288 15 10.3431 16.1716 9.17157C17.3431 8 19.2288 8 23 8H25C28.7712 8 30.6569 8 31.8284 9.17157C33 10.3431 33 12.2288 33 16V20C33 23.7712 33 25.6569 31.8284 26.8284C30.6569 28 28.7712 28 25 28H23C19.2288 28 17.3431 28 16.1716 26.8284C15 25.6569 15 23.7712 15 20V16Z" stroke="white" stroke-width="1.5"/>
<path d="M20 18H28" stroke="white" stroke-width="1.5" stroke-linecap="round"/>
<path d="M20 14H28" stroke="white" stroke-width="1.5" stroke-linecap="round"/>
<path d="M20 22H25" stroke="white" stroke-width="1.5" stroke-linecap="round"/>
<path d="M51.266 20.076H51.992V22.463H50.925V21H45.678V22.463H44.611V20.076H45.337C45.689 19.2767 45.942 18.3453 46.096 17.282C46.25 16.2187 46.327 14.873 46.327 13.245H51.266V20.076ZM46.404 20.076H50.199V14.169H47.394C47.3427 16.7357 47.0127 18.7047 46.404 20.076ZM57.1664 15.522H58.2444V21H57.1664V18.712H54.1854V21H53.1184V15.522H54.1854V17.788H57.1664V15.522ZM59.4726 18.184C59.4726 17.3187 59.7183 16.6403 60.2096 16.149C60.7083 15.6577 61.361 15.412 62.1676 15.412C62.967 15.412 63.605 15.6503 64.0816 16.127C64.5583 16.5963 64.7966 17.2453 64.7966 18.074V18.47H60.5066C60.5286 18.9907 60.6826 19.4123 60.9686 19.735C61.262 20.0577 61.7093 20.219 62.3106 20.219C63.1906 20.219 63.726 19.8377 63.9166 19.075H64.9836C64.8736 19.603 64.5986 20.076 64.1586 20.494C63.726 20.9047 63.11 21.11 62.3106 21.11C61.3646 21.11 60.6533 20.835 60.1766 20.285C59.7073 19.735 59.4726 19.0347 59.4726 18.184ZM60.5066 17.722H63.7626C63.7626 17.3113 63.6233 16.9703 63.3446 16.699C63.0733 16.4277 62.681 16.292 62.1676 16.292C61.6543 16.292 61.2473 16.4313 60.9466 16.71C60.6533 16.9813 60.5066 17.3187 60.5066 17.722ZM66.1379 21V15.522H68.2279C68.9539 15.522 69.5076 15.6173 69.8889 15.808C70.2703 15.9987 70.4609 16.3397 70.4609 16.831C70.4609 17.2343 70.3509 17.524 70.1309 17.7C69.9109 17.8687 69.6543 17.964 69.3609 17.986V18.272C70.3656 18.2867 70.8679 18.7157 70.8679 19.559C70.8679 20.5197 70.1236 21 68.6349 21H66.1379ZM67.1719 17.755H68.2279C68.6899 17.755 69.0053 17.7147 69.1739 17.634C69.3426 17.546 69.4269 17.337 69.4269 17.007C69.4269 16.7283 69.3389 16.5487 69.1629 16.468C68.9869 16.38 68.6753 16.336 68.2279 16.336H67.1719V17.755ZM67.1719 20.186H68.6349C69.0676 20.186 69.3756 20.1347 69.5589 20.032C69.7423 19.9293 69.8339 19.724 69.8339 19.416C69.8339 19.0787 69.7423 18.855 69.5589 18.745C69.3756 18.6277 69.0676 18.569 68.6349 18.569H67.1719V20.186ZM76.1371 15.522H77.2151V21H76.1371V18.712H73.1561V21H72.0891V15.522H73.1561V17.788H76.1371V15.522ZM84.2707 21H83.1927V16.413L83.3797 15.808H83.0827L80.9047 21H78.7707V15.522H79.8377V20.087L79.6507 20.703H79.9477L82.1257 15.522H84.2707V21ZM90.3878 21H89.1668L87.3738 18.69C87.2564 18.7047 87.1611 18.712 87.0878 18.712H86.6698V21H85.6028V15.522H86.6698V17.766H87.1208L88.4848 15.929C88.6828 15.6577 88.9724 15.522 89.3538 15.522H90.2448V16.446H89.3538L88.1438 18.052L90.3878 21Z" fill="white"/>
</svg>
