<svg width="91" height="36" viewBox="0 0 91 36" fill="none" xmlns="http://www.w3.org/2000/svg">
<rect width="91" height="36" rx="8" fill="#6B84AD"/>
<path d="M18 17C18 14.1716 18 12.7574 18.8787 11.8787C19.7574 11 21.1716 11 24 11H27C29.8284 11 31.2426 11 32.1213 11.8787C33 12.7574 33 14.1716 33 17V22C33 24.8284 33 26.2426 32.1213 27.1213C31.2426 28 29.8284 28 27 28H24C21.1716 28 19.7574 28 18.8787 27.1213C18 26.2426 18 24.8284 18 22V17Z" stroke="white" stroke-width="1.5"/>
<path d="M18 25C16.3431 25 15 23.6569 15 22V16C15 12.2288 15 10.3431 16.1716 9.17157C17.3431 8 19.2288 8 23 8H27C28.6569 8 30 9.34315 30 11" stroke="white" stroke-width="1.5"/>
<path d="M51.7478 21H50.4498L47.4578 17.59C47.3258 17.6487 47.1792 17.678 47.0178 17.678H46.8968V21H45.8298V13.245H46.8968V16.732H47.0178L49.4488 13.685C49.6835 13.3917 49.9732 13.245 50.3178 13.245H51.6708V14.169H50.3398L48.1728 16.875L51.7478 21ZM52.227 19.482C52.227 18.5433 52.8503 18.0007 54.097 17.854L56.198 17.634C56.154 16.7393 55.6663 16.292 54.735 16.292C54.317 16.292 53.9723 16.3983 53.701 16.611C53.4297 16.8163 53.294 17.1353 53.294 17.568H52.26C52.26 16.952 52.4837 16.4387 52.931 16.028C53.3783 15.6173 53.9797 15.412 54.735 15.412C55.505 15.412 56.1173 15.6357 56.572 16.083C57.034 16.5303 57.265 17.1353 57.265 17.898V20.076H58.068V21H57.045C56.8323 21 56.6637 20.9413 56.539 20.824C56.4217 20.7067 56.363 20.538 56.363 20.318V20.065L56.528 19.482H56.242C55.9707 20.5673 55.252 21.11 54.086 21.11C53.7047 21.11 53.382 21.055 53.118 20.945C52.854 20.835 52.6633 20.6883 52.546 20.505C52.4287 20.3217 52.3443 20.1493 52.293 19.988C52.249 19.8267 52.227 19.658 52.227 19.482ZM53.294 19.328C53.294 19.6067 53.3783 19.8193 53.547 19.966C53.723 20.1127 53.954 20.186 54.24 20.186C54.8267 20.186 55.2997 20.0173 55.659 19.68C56.0183 19.3353 56.198 18.9027 56.198 18.382L54.284 18.58C53.9393 18.624 53.6863 18.701 53.525 18.811C53.371 18.921 53.294 19.0933 53.294 19.328ZM59.0427 15.522H60.1097V16.226L59.9227 16.919H60.2197C60.3517 16.4717 60.6011 16.1087 60.9677 15.83C61.3344 15.5513 61.8184 15.412 62.4197 15.412C63.2044 15.412 63.8277 15.6797 64.2897 16.215C64.7591 16.7503 64.9937 17.4323 64.9937 18.261C64.9937 19.0897 64.7591 19.7717 64.2897 20.307C63.8277 20.8423 63.2044 21.11 62.4197 21.11C61.8184 21.11 61.3344 20.9707 60.9677 20.692C60.6011 20.4133 60.3517 20.0467 60.2197 19.592H59.9227L60.1097 20.296V23.013H59.0427V15.522ZM60.6377 16.82C60.2857 17.1353 60.1097 17.6157 60.1097 18.261C60.1097 18.9063 60.2857 19.3903 60.6377 19.713C60.9971 20.0283 61.4701 20.186 62.0567 20.186C62.6287 20.186 63.0834 20.0283 63.4207 19.713C63.7581 19.3903 63.9267 18.9063 63.9267 18.261C63.9267 17.6157 63.7581 17.1353 63.4207 16.82C63.0834 16.4973 62.6287 16.336 62.0567 16.336C61.4701 16.336 60.9971 16.4973 60.6377 16.82ZM70.5544 15.522V16.446H68.4864V21H67.4194V16.446H65.3514V15.522H70.5544ZM73.917 17.007C75.523 17.007 76.326 17.6743 76.326 19.009C76.326 20.3363 75.523 21 73.917 21H71.783V15.522H72.85V17.007H73.917ZM77.107 21V15.522H78.174V21H77.107ZM72.85 20.076H73.807C74.313 20.076 74.6796 20.01 74.907 19.878C75.1416 19.7387 75.259 19.449 75.259 19.009C75.259 18.5617 75.1416 18.272 74.907 18.14C74.6796 18.0007 74.313 17.931 73.807 17.931H72.85V20.076Z" fill="white"/>
</svg>
