<svg width="99" height="36" viewBox="0 0 99 36" fill="none" xmlns="http://www.w3.org/2000/svg">
<rect width="99" height="36" rx="8" fill="#6B84AD"/>
<path d="M15.8445 13.9223C14.7185 12.7962 14.7185 10.9706 15.8445 9.84453C16.9706 8.71849 18.7962 8.71849 19.9223 9.84453L32.1555 22.0777C33.2815 23.2038 33.2815 25.0294 32.1555 26.1555C31.0294 27.2815 29.2038 27.2815 28.0777 26.1555L15.8445 13.9223Z" stroke="white" stroke-width="1.5"/>
<path d="M18 16L22 12" stroke="white" stroke-width="1.5" stroke-linecap="round"/>
<path d="M28.1 8.30719C28.261 7.8976 28.8385 7.8976 28.9994 8.30719L29.4298 9.40247C29.479 9.52752 29.5776 9.62651 29.7022 9.67583L30.7934 10.1078C31.2015 10.2693 31.2015 10.849 30.7934 11.0105L29.7022 11.4425C29.5776 11.4918 29.479 11.5908 29.4298 11.7159L28.9995 12.8112C28.8385 13.2207 28.261 13.2207 28.1 12.8112L27.6697 11.7159C27.6205 11.5908 27.5219 11.4918 27.3973 11.4425L26.3061 11.0105C25.898 10.849 25.898 10.2693 26.3061 10.1078L27.3973 9.67583C27.5219 9.62651 27.6205 9.52752 27.6697 9.40247L28.1 8.30719Z" stroke="white"/>
<path d="M31.9672 15.1295C32.1281 14.7199 32.7057 14.7199 32.8666 15.1295L33.0235 15.5288C33.0727 15.6539 33.1713 15.7528 33.2959 15.8022L33.6937 15.9597C34.1018 16.1212 34.1018 16.7009 33.6937 16.8624L33.2959 17.0199C33.1713 17.0692 33.0727 17.1682 33.0235 17.2932L32.8666 17.6926C32.7057 18.1022 32.1281 18.1022 31.9672 17.6926L31.8103 17.2932C31.7611 17.1682 31.6625 17.0692 31.5379 17.0199L31.14 16.8624C30.732 16.7009 30.732 16.1212 31.14 15.9597L31.5379 15.8022C31.6625 15.7528 31.7611 15.6539 31.8103 15.5288L31.9672 15.1295Z" stroke="white"/>
<path d="M17.1332 21.3072C17.2941 20.8976 17.8717 20.8976 18.0326 21.3072L18.1895 21.7065C18.2387 21.8316 18.3373 21.9306 18.4619 21.9799L18.8598 22.1374C19.2678 22.2989 19.2678 22.8786 18.8598 23.0401L18.4619 23.1976C18.3373 23.2469 18.2387 23.3459 18.1895 23.471L18.0326 23.8703C17.8717 24.2799 17.2941 24.2799 17.1332 23.8703L16.9763 23.471C16.9271 23.3459 16.8285 23.2469 16.7039 23.1976L16.3061 23.0401C15.898 22.8786 15.898 22.2989 16.3061 22.1374L16.7039 21.9799C16.8285 21.9306 16.9271 21.8316 16.9763 21.7065L17.1332 21.3072Z" stroke="white"/>
<path d="M42.9211 21V13.245H47.7501V14.169H43.9881V21H42.9211ZM46.9873 19.482C46.9873 18.5433 47.6106 18.0007 48.8573 17.854L50.9583 17.634C50.9143 16.7393 50.4266 16.292 49.4953 16.292C49.0773 16.292 48.7326 16.3983 48.4613 16.611C48.1899 16.8163 48.0543 17.1353 48.0543 17.568H47.0203C47.0203 16.952 47.2439 16.4387 47.6913 16.028C48.1386 15.6173 48.7399 15.412 49.4953 15.412C50.2653 15.412 50.8776 15.6357 51.3323 16.083C51.7943 16.5303 52.0253 17.1353 52.0253 17.898V20.076H52.8283V21H51.8053C51.5926 21 51.4239 20.9413 51.2993 20.824C51.1819 20.7067 51.1233 20.538 51.1233 20.318V20.065L51.2883 19.482H51.0023C50.7309 20.5673 50.0123 21.11 48.8463 21.11C48.4649 21.11 48.1423 21.055 47.8783 20.945C47.6143 20.835 47.4236 20.6883 47.3063 20.505C47.1889 20.3217 47.1046 20.1493 47.0533 19.988C47.0093 19.8267 46.9873 19.658 46.9873 19.482ZM48.0543 19.328C48.0543 19.6067 48.1386 19.8193 48.3073 19.966C48.4833 20.1127 48.7143 20.186 49.0003 20.186C49.5869 20.186 50.0599 20.0173 50.4193 19.68C50.7786 19.3353 50.9583 18.9027 50.9583 18.382L49.0443 18.58C48.6996 18.624 48.4466 18.701 48.2853 18.811C48.1313 18.921 48.0543 19.0933 48.0543 19.328ZM59.7862 20.076V22.463H58.7192V21H54.6822V22.463H53.6152V20.076H54.3412C54.6345 19.526 54.8435 18.9027 54.9682 18.206C55.0929 17.502 55.1552 16.6073 55.1552 15.522H59.0602V20.076H59.7862ZM55.4082 20.076H57.9932V16.446H56.2112C56.1452 17.986 55.8775 19.196 55.4082 20.076ZM60.6836 19.482C60.6836 18.5433 61.3069 18.0007 62.5536 17.854L64.6546 17.634C64.6106 16.7393 64.1229 16.292 63.1916 16.292C62.7736 16.292 62.4289 16.3983 62.1576 16.611C61.8862 16.8163 61.7506 17.1353 61.7506 17.568H60.7166C60.7166 16.952 60.9402 16.4387 61.3876 16.028C61.8349 15.6173 62.4362 15.412 63.1916 15.412C63.9616 15.412 64.5739 15.6357 65.0286 16.083C65.4906 16.5303 65.7216 17.1353 65.7216 17.898V20.076H66.5246V21H65.5016C65.2889 21 65.1202 20.9413 64.9956 20.824C64.8782 20.7067 64.8196 20.538 64.8196 20.318V20.065L64.9846 19.482H64.6986C64.4272 20.5673 63.7086 21.11 62.5426 21.11C62.1612 21.11 61.8386 21.055 61.5746 20.945C61.3106 20.835 61.1199 20.6883 61.0026 20.505C60.8852 20.3217 60.8009 20.1493 60.7496 19.988C60.7056 19.8267 60.6836 19.658 60.6836 19.482ZM61.7506 19.328C61.7506 19.6067 61.8349 19.8193 62.0036 19.966C62.1796 20.1127 62.4106 20.186 62.6966 20.186C63.2832 20.186 63.7562 20.0173 64.1156 19.68C64.4749 19.3353 64.6546 18.9027 64.6546 18.382L62.7406 18.58C62.3959 18.624 62.1429 18.701 61.9816 18.811C61.8276 18.921 61.7506 19.0933 61.7506 19.328ZM71.5473 15.522H72.6253V21H71.5473V18.712H68.5663V21H67.4993V15.522H68.5663V17.788H71.5473V15.522ZM79.6809 21H78.6029V16.413L78.7899 15.808H78.4929L76.3149 21H74.1809V15.522H75.2479V20.087L75.0609 20.703H75.3579L77.5359 15.522H79.6809V21ZM80.7929 18.184C80.7929 17.3187 81.0386 16.6403 81.5299 16.149C82.0286 15.6577 82.6813 15.412 83.4879 15.412C84.2873 15.412 84.9253 15.6503 85.4019 16.127C85.8786 16.5963 86.1169 17.2453 86.1169 18.074V18.47H81.8269C81.8489 18.9907 82.0029 19.4123 82.2889 19.735C82.5823 20.0577 83.0296 20.219 83.6309 20.219C84.5109 20.219 85.0463 19.8377 85.2369 19.075H86.3039C86.1939 19.603 85.9189 20.076 85.4789 20.494C85.0463 20.9047 84.4303 21.11 83.6309 21.11C82.6849 21.11 81.9736 20.835 81.4969 20.285C81.0276 19.735 80.7929 19.0347 80.7929 18.184ZM81.8269 17.722H85.0829C85.0829 17.3113 84.9436 16.9703 84.6649 16.699C84.3936 16.4277 84.0013 16.292 83.4879 16.292C82.9746 16.292 82.5676 16.4313 82.2669 16.71C81.9736 16.9813 81.8269 17.3187 81.8269 17.722Z" fill="white"/>
</svg>
