<svg width="103" height="36" viewBox="0 0 103 36" fill="none" xmlns="http://www.w3.org/2000/svg">
<rect width="103" height="36" rx="8" fill="#6B84AD"/>
<path d="M17.6695 15.9144L20.7317 11.7713C22.711 9.09327 23.7007 7.75425 24.6241 8.03721C25.5474 8.32018 25.5474 9.96249 25.5474 13.2471V13.5568C25.5474 14.7415 25.5474 15.3339 25.926 15.7054L25.946 15.7247C26.3327 16.0884 26.9492 16.0884 28.1822 16.0884C30.4011 16.0884 31.5106 16.0884 31.8855 16.7613C31.8917 16.7724 31.8977 16.7837 31.9036 16.795C32.2576 17.4784 31.6152 18.3475 30.3304 20.0857L27.2683 24.2287C25.2889 26.9067 24.2992 28.2458 23.3758 27.9628C22.4525 27.6798 22.4525 26.0375 22.4525 22.7528L22.4526 22.4433C22.4526 21.2585 22.4526 20.6662 22.074 20.2946L22.054 20.2754C21.6673 19.9117 21.0508 19.9117 19.8178 19.9117C17.5989 19.9117 16.4894 19.9117 16.1145 19.2387C16.1083 19.2276 16.1023 19.2164 16.0964 19.205C15.7424 18.5217 16.3848 17.6526 17.6695 15.9144Z" stroke="white" stroke-width="1.5"/>
<path d="M50.6799 13.245H51.7579V21H50.6799V17.645H46.2469V21H45.1799V13.245H46.2469V16.721H50.6799V13.245ZM52.8769 18.25C52.8769 17.4213 53.1483 16.743 53.6909 16.215C54.2336 15.6797 54.9413 15.412 55.8139 15.412C56.6793 15.412 57.3833 15.6797 57.9259 16.215C58.4686 16.743 58.7399 17.4213 58.7399 18.25C58.7399 19.086 58.4686 19.7717 57.9259 20.307C57.3833 20.8423 56.6793 21.11 55.8139 21.11C54.9413 21.11 54.2336 20.846 53.6909 20.318C53.1483 19.7827 52.8769 19.0933 52.8769 18.25ZM53.9439 18.25C53.9439 18.822 54.1089 19.2877 54.4389 19.647C54.7689 20.0063 55.2273 20.186 55.8139 20.186C56.3933 20.186 56.8443 20.0063 57.1669 19.647C57.4969 19.2877 57.6619 18.822 57.6619 18.25C57.6619 17.6853 57.4969 17.227 57.1669 16.875C56.8443 16.5157 56.3933 16.336 55.8139 16.336C55.2273 16.336 54.7689 16.5157 54.4389 16.875C54.1089 17.227 53.9439 17.6853 53.9439 18.25ZM59.886 21V15.522H61.976C62.702 15.522 63.2556 15.6173 63.637 15.808C64.0183 15.9987 64.209 16.3397 64.209 16.831C64.209 17.2343 64.099 17.524 63.879 17.7C63.659 17.8687 63.4023 17.964 63.109 17.986V18.272C64.1136 18.2867 64.616 18.7157 64.616 19.559C64.616 20.5197 63.8716 21 62.383 21H59.886ZM60.92 17.755H61.976C62.438 17.755 62.7533 17.7147 62.922 17.634C63.0906 17.546 63.175 17.337 63.175 17.007C63.175 16.7283 63.087 16.5487 62.911 16.468C62.735 16.38 62.4233 16.336 61.976 16.336H60.92V17.755ZM60.92 20.186H62.383C62.8156 20.186 63.1236 20.1347 63.307 20.032C63.4903 19.9293 63.582 19.724 63.582 19.416C63.582 19.0787 63.4903 18.855 63.307 18.745C63.1236 18.6277 62.8156 18.569 62.383 18.569H60.92V20.186ZM65.6172 18.25C65.6172 17.4213 65.8885 16.743 66.4312 16.215C66.9738 15.6797 67.6815 15.412 68.5542 15.412C69.4195 15.412 70.1235 15.6797 70.6662 16.215C71.2088 16.743 71.4802 17.4213 71.4802 18.25C71.4802 19.086 71.2088 19.7717 70.6662 20.307C70.1235 20.8423 69.4195 21.11 68.5542 21.11C67.6815 21.11 66.9738 20.846 66.4312 20.318C65.8885 19.7827 65.6172 19.0933 65.6172 18.25ZM66.6842 18.25C66.6842 18.822 66.8492 19.2877 67.1792 19.647C67.5092 20.0063 67.9675 20.186 68.5542 20.186C69.1335 20.186 69.5845 20.0063 69.9072 19.647C70.2372 19.2877 70.4022 18.822 70.4022 18.25C70.4022 17.6853 70.2372 17.227 69.9072 16.875C69.5845 16.5157 69.1335 16.336 68.5542 16.336C67.9675 16.336 67.5092 16.5157 67.1792 16.875C66.8492 17.227 66.6842 17.6853 66.6842 18.25ZM72.4062 18.25C72.4062 17.4213 72.6629 16.743 73.1762 16.215C73.6895 15.6797 74.3789 15.412 75.2442 15.412C75.8969 15.412 76.4835 15.599 77.0042 15.973C77.5249 16.347 77.8145 16.9007 77.8732 17.634H76.7952C76.7292 17.1867 76.5569 16.8603 76.2782 16.655C75.9995 16.4423 75.6549 16.336 75.2442 16.336C74.6649 16.336 74.2249 16.5157 73.9242 16.875C73.6235 17.227 73.4732 17.6853 73.4732 18.25C73.4732 18.822 73.6235 19.2877 73.9242 19.647C74.2249 20.0063 74.6649 20.186 75.2442 20.186C75.6549 20.186 75.9995 20.0833 76.2782 19.878C76.5569 19.6653 76.7292 19.3353 76.7952 18.888H77.8732C77.8145 19.6213 77.5249 20.175 77.0042 20.549C76.4835 20.923 75.8969 21.11 75.2442 21.11C74.3789 21.11 73.6895 20.8423 73.1762 20.307C72.6629 19.7717 72.4062 19.086 72.4062 18.25ZM83.5363 15.522V16.446H81.4683V21H80.4013V16.446H78.3333V15.522H83.5363ZM90.05 21H88.972V16.413L89.159 15.808H88.862L86.684 21H84.55V15.522H85.617V20.087L85.43 20.703H85.727L87.905 15.522H90.05V21Z" fill="white"/>
</svg>
