<svg width="115" height="36" viewBox="0 0 115 36" fill="none" xmlns="http://www.w3.org/2000/svg">
<rect width="115" height="36" rx="8" fill="#6B84AD"/>
<circle cx="24" cy="18" r="3" stroke="white" stroke-width="1.5"/>
<path d="M25.7654 8.15224C25.3978 8 24.9319 8 24 8C23.0681 8 22.6022 8 22.2346 8.15224C21.7446 8.35523 21.3552 8.74458 21.1522 9.23463C21.0596 9.45834 21.0233 9.7185 21.0091 10.098C20.9883 10.6557 20.7023 11.1719 20.2189 11.4509C19.7356 11.73 19.1456 11.7195 18.6522 11.4588C18.3164 11.2813 18.073 11.1826 17.8329 11.151C17.307 11.0818 16.7752 11.2243 16.3544 11.5472C16.0387 11.7894 15.8058 12.1929 15.3398 12.9999C14.8739 13.807 14.6409 14.2105 14.589 14.6049C14.5198 15.1308 14.6623 15.6627 14.9852 16.0835C15.1326 16.2756 15.3397 16.437 15.6612 16.639C16.1338 16.936 16.4379 17.4419 16.4379 18C16.4378 18.5581 16.1337 19.0639 15.6612 19.3608C15.3396 19.5629 15.1325 19.7244 14.9851 19.9165C14.6622 20.3373 14.5197 20.8691 14.5889 21.395C14.6408 21.7894 14.8738 22.193 15.3397 23C15.8057 23.807 16.0386 24.2106 16.3543 24.4527C16.7751 24.7756 17.3069 24.9181 17.8328 24.8489C18.0729 24.8173 18.3163 24.7186 18.652 24.5412C19.1455 24.2804 19.7356 24.27 20.2189 24.549C20.7022 24.8281 20.9883 25.3443 21.0091 25.9021C21.0233 26.2815 21.0596 26.5417 21.1522 26.7654C21.3552 27.2554 21.7446 27.6448 22.2346 27.8478C22.6022 28 23.0681 28 24 28C24.9319 28 25.3978 28 25.7654 27.8478C26.2554 27.6448 26.6448 27.2554 26.8477 26.7654C26.9404 26.5417 26.9767 26.2815 26.9909 25.902C27.0117 25.3443 27.2977 24.8281 27.781 24.549C28.2643 24.2699 28.8544 24.2804 29.3479 24.5412C29.6836 24.7186 29.927 24.8172 30.167 24.8488C30.6929 24.9181 31.2248 24.7756 31.6456 24.4527C31.9612 24.2105 32.1942 23.807 32.6601 22.9999C33.1261 22.1929 33.3591 21.7894 33.411 21.395C33.4802 20.8691 33.3377 20.3372 33.0148 19.9164C32.8674 19.7243 32.6602 19.5628 32.3387 19.3608C31.8662 19.0639 31.5621 18.558 31.5621 17.9999C31.5621 17.4418 31.8662 16.9361 32.3387 16.6392C32.6603 16.4371 32.8675 16.2757 33.0149 16.0835C33.3378 15.6627 33.4803 15.1309 33.4111 14.605C33.3592 14.2106 33.1262 13.807 32.6602 13C32.1943 12.193 31.9613 11.7894 31.6457 11.5473C31.2249 11.2244 30.693 11.0818 30.1671 11.1511C29.9271 11.1827 29.6837 11.2814 29.3479 11.4588C28.8545 11.7196 28.2644 11.73 27.7811 11.451C27.2977 11.1719 27.0117 10.6557 26.9909 10.0979C26.9767 9.71848 26.9404 9.45833 26.8477 9.23463C26.6448 8.74458 26.2554 8.35523 25.7654 8.15224Z" stroke="white" stroke-width="1.5"/>
<path d="M48.7727 13.245H49.8507V21H48.7727V17.645H44.3397V21H43.2727V13.245H44.3397V16.721H48.7727V13.245ZM51.0771 19.482C51.0771 18.5433 51.7004 18.0007 52.9471 17.854L55.0481 17.634C55.0041 16.7393 54.5164 16.292 53.5851 16.292C53.1671 16.292 52.8224 16.3983 52.5511 16.611C52.2798 16.8163 52.1441 17.1353 52.1441 17.568H51.1101C51.1101 16.952 51.3338 16.4387 51.7811 16.028C52.2284 15.6173 52.8298 15.412 53.5851 15.412C54.3551 15.412 54.9674 15.6357 55.4221 16.083C55.8841 16.5303 56.1151 17.1353 56.1151 17.898V20.076H56.9181V21H55.8951C55.6824 21 55.5138 20.9413 55.3891 20.824C55.2718 20.7067 55.2131 20.538 55.2131 20.318V20.065L55.3781 19.482H55.0921C54.8208 20.5673 54.1021 21.11 52.9361 21.11C52.5548 21.11 52.2321 21.055 51.9681 20.945C51.7041 20.835 51.5134 20.6883 51.3961 20.505C51.2788 20.3217 51.1944 20.1493 51.1431 19.988C51.0991 19.8267 51.0771 19.658 51.0771 19.482ZM52.1441 19.328C52.1441 19.6067 52.2284 19.8193 52.3971 19.966C52.5731 20.1127 52.8041 20.186 53.0901 20.186C53.6768 20.186 54.1498 20.0173 54.5091 19.68C54.8684 19.3353 55.0481 18.9027 55.0481 18.382L53.1341 18.58C52.7894 18.624 52.5364 18.701 52.3751 18.811C52.2211 18.921 52.1441 19.0933 52.1441 19.328ZM57.4902 18.25C57.4902 17.4213 57.7469 16.743 58.2602 16.215C58.7735 15.6797 59.4629 15.412 60.3282 15.412C60.9809 15.412 61.5675 15.599 62.0882 15.973C62.6089 16.347 62.8985 16.9007 62.9572 17.634H61.8792C61.8132 17.1867 61.6409 16.8603 61.3622 16.655C61.0835 16.4423 60.7389 16.336 60.3282 16.336C59.7489 16.336 59.3089 16.5157 59.0082 16.875C58.7075 17.227 58.5572 17.6853 58.5572 18.25C58.5572 18.822 58.7075 19.2877 59.0082 19.647C59.3089 20.0063 59.7489 20.186 60.3282 20.186C60.7389 20.186 61.0835 20.0833 61.3622 19.878C61.6409 19.6653 61.8132 19.3353 61.8792 18.888H62.9572C62.8985 19.6213 62.6089 20.175 62.0882 20.549C61.5675 20.923 60.9809 21.11 60.3282 21.11C59.4629 21.11 58.7735 20.8423 58.2602 20.307C57.7469 19.7717 57.4902 19.086 57.4902 18.25ZM68.6203 15.522V16.446H66.5523V21H65.4853V16.446H63.4173V15.522H68.6203ZM69.634 15.522H70.701V16.226L70.514 16.919H70.811C70.943 16.4717 71.1924 16.1087 71.559 15.83C71.9257 15.5513 72.4097 15.412 73.011 15.412C73.7957 15.412 74.419 15.6797 74.881 16.215C75.3504 16.7503 75.585 17.4323 75.585 18.261C75.585 19.0897 75.3504 19.7717 74.881 20.307C74.419 20.8423 73.7957 21.11 73.011 21.11C72.4097 21.11 71.9257 20.9707 71.559 20.692C71.1924 20.4133 70.943 20.0467 70.811 19.592H70.514L70.701 20.296V23.013H69.634V15.522ZM71.229 16.82C70.877 17.1353 70.701 17.6157 70.701 18.261C70.701 18.9063 70.877 19.3903 71.229 19.713C71.5884 20.0283 72.0614 20.186 72.648 20.186C73.22 20.186 73.6747 20.0283 74.012 19.713C74.3494 19.3903 74.518 18.9063 74.518 18.261C74.518 17.6157 74.3494 17.1353 74.012 16.82C73.6747 16.4973 73.22 16.336 72.648 16.336C72.0614 16.336 71.5884 16.4973 71.229 16.82ZM76.708 18.25C76.708 17.4213 76.9793 16.743 77.522 16.215C78.0646 15.6797 78.7723 15.412 79.645 15.412C80.5103 15.412 81.2143 15.6797 81.757 16.215C82.2996 16.743 82.571 17.4213 82.571 18.25C82.571 19.086 82.2996 19.7717 81.757 20.307C81.2143 20.8423 80.5103 21.11 79.645 21.11C78.7723 21.11 78.0646 20.846 77.522 20.318C76.9793 19.7827 76.708 19.0933 76.708 18.25ZM77.775 18.25C77.775 18.822 77.94 19.2877 78.27 19.647C78.6 20.0063 79.0583 20.186 79.645 20.186C80.2243 20.186 80.6753 20.0063 80.998 19.647C81.328 19.2877 81.493 18.822 81.493 18.25C81.493 17.6853 81.328 17.227 80.998 16.875C80.6753 16.5157 80.2243 16.336 79.645 16.336C79.0583 16.336 78.6 16.5157 78.27 16.875C77.94 17.227 77.775 17.6853 77.775 18.25ZM88.26 12.871C88.26 13.4503 88.1024 13.9233 87.787 14.29C87.479 14.6493 87.0427 14.829 86.478 14.829C85.9134 14.829 85.477 14.6493 85.169 14.29C84.861 13.9233 84.707 13.4503 84.707 12.871H85.554C85.554 13.2743 85.6274 13.5677 85.774 13.751C85.9207 13.927 86.1554 14.015 86.478 14.015C86.8007 14.015 87.0354 13.927 87.182 13.751C87.336 13.5677 87.413 13.2743 87.413 12.871H88.26ZM89.217 21H88.139V16.413L88.326 15.808H88.029L85.851 21H83.717V15.522H84.784V20.087L84.597 20.703H84.894L87.072 15.522H89.217V21ZM95.3341 21H94.1131L92.3201 18.69C92.2027 18.7047 92.1074 18.712 92.0341 18.712H91.6161V21H90.5491V15.522H91.6161V17.766H92.0671L93.4311 15.929C93.6291 15.6577 93.9187 15.522 94.3001 15.522H95.1911V16.446H94.3001L93.0901 18.052L95.3341 21ZM101.957 21H100.879V16.413L101.066 15.808H100.769L98.5913 21H96.4573V15.522H97.5243V20.087L97.3373 20.703H97.6343L99.8123 15.522H101.957V21Z" fill="white"/>
</svg>
